<svg version="1.1" xmlns="http://www.w3.org/2000/svg" xmlns:xlink="http://www.w3.org/1999/xlink" width="597.87939" height="453.93615" viewBox="0,0,597.87939,453.93615"><defs><linearGradient x1="-14.92876" y1="146.62177" x2="580.88778" y2="146.62177" gradientUnits="userSpaceOnUse" id="color-1"><stop offset="0" stop-color="#ea3a3a"/><stop offset="1" stop-color="#c73aea"/></linearGradient><linearGradient x1="229.04365" y1="145.08163" x2="304.20017" y2="156.14544" gradientTransform="translate(-101.92322,-185.79467) rotate(26.51887) scale(0.68657,0.68657)" gradientUnits="userSpaceOnUse" id="color-2"><stop offset="0" stop-color="#ea3a3a"/><stop offset="1" stop-color="#c73aea"/></linearGradient><linearGradient x1="229.04365" y1="145.08162" x2="304.20018" y2="156.14542" gradientTransform="translate(-101.92322,-185.79467) rotate(26.51887) scale(0.68657,0.68657)" gradientUnits="userSpaceOnUse" id="color-3"><stop offset="0" stop-color="#eb3b3b"/><stop offset="1" stop-color="#c83beb"/></linearGradient><linearGradient x1="235.29406" y1="118.1326" x2="280.13837" y2="118.1326" gradientUnits="userSpaceOnUse" id="color-4"><stop offset="0" stop-color="#ea3a3a"/><stop offset="1" stop-color="#c73aea"/></linearGradient><linearGradient x1="235.29406" y1="118.1326" x2="280.13837" y2="118.1326" gradientUnits="userSpaceOnUse" id="color-5"><stop offset="0" stop-color="#ea3a3a"/><stop offset="1" stop-color="#c73aea"/></linearGradient><linearGradient x1="294.25396" y1="120.99863" x2="229.37966" y2="160.52377" gradientTransform="translate(-0.34443,191.92022) rotate(-113.75461) scale(0.68657,0.68657)" gradientUnits="userSpaceOnUse" id="color-6"><stop offset="0" stop-color="#ea3a3a"/><stop offset="1" stop-color="#c73aea"/></linearGradient><linearGradient x1="294.25397" y1="120.99864" x2="229.37966" y2="160.52379" gradientTransform="translate(-0.34443,191.92022) rotate(-113.75461) scale(0.68657,0.68657)" gradientUnits="userSpaceOnUse" id="color-7"><stop offset="0" stop-color="#eb3b3b"/><stop offset="1" stop-color="#c83beb"/></linearGradient><linearGradient x1="306.67052" y1="145.72001" x2="272.18061" y2="174.3811" gradientUnits="userSpaceOnUse" id="color-8"><stop offset="0" stop-color="#ea3a3a"/><stop offset="1" stop-color="#c73aea"/></linearGradient><linearGradient x1="306.67052" y1="145.72001" x2="272.18061" y2="174.3811" gradientUnits="userSpaceOnUse" id="color-9"><stop offset="0" stop-color="#ea3a3a"/><stop offset="1" stop-color="#c73aea"/></linearGradient><linearGradient x1="278.94504" y1="180.57353" x2="263.0627" y2="106.28583" gradientTransform="translate(218.90104,-66.54845) rotate(136.96112) scale(0.68657,0.68657)" gradientUnits="userSpaceOnUse" id="color-10"><stop offset="0" stop-color="#ea3a3a"/><stop offset="1" stop-color="#c73aea"/></linearGradient><linearGradient x1="278.94503" y1="180.57353" x2="263.06269" y2="106.28582" gradientTransform="translate(218.90104,-66.54845) rotate(136.96112) scale(0.68657,0.68657)" gradientUnits="userSpaceOnUse" id="color-11"><stop offset="0" stop-color="#eb3b3b"/><stop offset="1" stop-color="#c83beb"/></linearGradient><linearGradient x1="251.51009" y1="184.12904" x2="235.84763" y2="142.10882" gradientUnits="userSpaceOnUse" id="color-12"><stop offset="0" stop-color="#ea3a3a"/><stop offset="1" stop-color="#c73aea"/></linearGradient><linearGradient x1="251.51009" y1="184.12904" x2="235.84763" y2="142.10882" gradientUnits="userSpaceOnUse" id="color-13"><stop offset="0" stop-color="#ea3a3a"/><stop offset="1" stop-color="#c73aea"/></linearGradient></defs><g transform="translate(15.95234,80.33944)"><g stroke-miterlimit="10"><path d="M564.45299,-67.79946l16.43479,440.36247l-595.81654,-19.03369l10.41456,-432.84879z" fill="url(#color-1)" stroke="#000000" stroke-width="2" stroke-linecap="butt"/><path d="M222.06932,198.79581c-3.23921,0 -5.86511,-2.62589 -5.86511,-5.86511v-97.86138c0,-3.23921 2.62589,-5.86511 5.86511,-5.86511h97.86138c3.23921,0 5.86511,2.62589 5.86511,5.86511v97.86138c0,3.23921 -2.62589,5.86511 -5.86511,5.86511z" fill="#ffffff" stroke="none" stroke-width="0" stroke-linecap="butt"/><text transform="translate(272.68221,218.57058) scale(0.5,0.5)" font-size="40" xml:space="preserve" fill="#fffefe" stroke="#ffffff" stroke-width="2" stroke-linecap="butt" font-family="Sans Serif" font-weight="normal" text-anchor="middle"><tspan x="0" dy="0">OpenDaily</tspan></text><text transform="translate(211.33037,216.83911) scale(0.37091,0.5)" font-size="40" xml:space="preserve" fill="#fffefe" stroke="#ffffff" stroke-width="2" stroke-linecap="butt" font-family="Sans Serif" font-weight="normal" text-anchor="start"><tspan x="0" dy="0"> </tspan><tspan x="0" dy="46.15px">A mod of CT daily</tspan></text><text transform="translate(253.66091,175.85834) rotate(-26.51887) scale(1.45652,1.45652)" font-size="40" xml:space="preserve" fill="url(#color-2)" stroke="url(#color-3)" stroke-width="4" stroke-linecap="butt" font-family="Sans Serif" font-weight="normal" text-anchor="start"><tspan x="0" dy="0">O</tspan></text><path d="M242.54829,136.76277l6.59475,-10.5516l1.31895,-13.1895l-4.28659,-7.58396l-10.88134,-5.93528l22.42215,3.95685l15.49766,9.56239l6.26501,9.89213l0.65948,7.58396z" fill="url(#color-4)" stroke="url(#color-5)" stroke-width="2" stroke-linecap="round"/><text transform="translate(255.6506,113.06164) rotate(113.75461) scale(1.45652,1.45652)" font-size="40" xml:space="preserve" fill="url(#color-6)" stroke="url(#color-7)" stroke-width="4" stroke-linecap="butt" font-family="Sans Serif" font-weight="normal" text-anchor="start"><tspan x="0" dy="0">O</tspan></text><path d="M289.18428,136.02784l1.67174,12.33014l7.41532,10.98707l8.14393,3.09318l12.16226,-2.38968l-19.77388,11.28731l-18.03086,2.55046l-11.14074,-3.60395l-5.3543,-5.41136z" fill="url(#color-8)" stroke="url(#color-9)" stroke-width="2" stroke-linecap="round"/><text transform="translate(299.18568,146.75738) rotate(-136.96112) scale(1.45652,1.45652)" font-size="40" xml:space="preserve" fill="url(#color-10)" stroke="url(#color-11)" stroke-width="4" stroke-linecap="butt" font-family="Sans Serif" font-weight="normal" text-anchor="start"><tspan x="0" dy="0">O</tspan></text><path d="M266.43339,170.82482l-12.19041,-2.49416l-12.81955,3.37072l-5.60921,6.66544l-1.76105,12.26906l-4.12356,-22.39209l3.54743,-17.86148l7.08103,-9.32542l6.87603,-3.26675z" fill="url(#color-12)" stroke="url(#color-13)" stroke-width="2" stroke-linecap="round"/></g></g></svg>