<svg version="1.1" xmlns="http://www.w3.org/2000/svg" xmlns:xlink="http://www.w3.org/1999/xlink" width="219.38444" height="203.69257" viewBox="0,0,219.38444,203.69257"><g transform="translate(-167.76768,-47.6018)"><g fill="#ebebeb" stroke-miterlimit="10"><text transform="translate(236.53764,216.23238) rotate(-26.51893) scale(3.17766,3.17766)" font-size="40" xml:space="preserve" fill="#ebebeb" stroke="#ebebeb" stroke-width="4" stroke-linecap="butt" font-family="Sans Serif" font-weight="normal" text-anchor="start"><tspan x="0" dy="0">O</tspan></text><path d="M212.29337,130.93809l14.38768,-23.02029l2.87754,-28.77536l-9.35199,-16.54584l-23.73968,-12.94891l48.91811,8.63261l33.81105,20.86214l13.66829,21.58153l1.43877,16.54584z" stroke="#ebebeb" stroke-width="2" stroke-linecap="round"/><text transform="translate(201.33464,236.90409) scale(0.70914,0.67244)" font-size="40" xml:space="preserve" fill="#ebebeb" stroke="#f7f7f7" stroke-width="2" stroke-linecap="butt" font-family="Sans Serif" font-weight="normal" text-anchor="start"><tspan x="0" dy="0">OpenDaily</tspan></text><text transform="translate(242.48206,82.27197) rotate(112.83925) scale(3.17766,3.17766)" font-size="40" xml:space="preserve" fill="#ebebeb" stroke="#ebebeb" stroke-width="4" stroke-linecap="butt" font-family="Sans Serif" font-weight="normal" text-anchor="start"><tspan x="0" dy="0">O</tspan></text><path d="M316.4331,131.20196l4.07646,26.83881l16.55875,23.70885l17.87302,6.4637l26.44756,-5.63674l-42.74154,25.31137l-39.24378,6.19199l-24.42811,-7.47342l-11.86851,-11.6178z" stroke="#ebebeb" stroke-width="2" stroke-linecap="round"/><text transform="translate(336.03076,158.034) rotate(-133.13726) scale(3.17766,3.17766)" font-size="40" xml:space="preserve" fill="#ebebeb" stroke="#ebebeb" stroke-width="4" stroke-linecap="butt" font-family="Sans Serif" font-weight="normal" text-anchor="start"><tspan x="0" dy="0">O</tspan></text><path d="M261.23289,205.65941l-26.17356,-7.20301l-28.39641,5.47229l-13.1801,13.69341l-5.61859,26.45142l-5.71834,-49.34374l10.32093,-38.36528l16.771,-19.2696l15.44325,-6.11072z" stroke="#ebebeb" stroke-width="2" stroke-linecap="round"/></g></g></svg>