<svg version="1.1" xmlns="http://www.w3.org/2000/svg" xmlns:xlink="http://www.w3.org/1999/xlink" width="229.32026" height="203.69257" viewBox="0,0,229.32026,203.69257"><g transform="translate(-167.76768,-47.6018)"><g stroke-miterlimit="10"><text transform="translate(236.53764,216.23238) rotate(-26.51893) scale(3.17766,3.17766)" font-size="40" xml:space="preserve" fill="#ebebeb" stroke="#ebebeb" stroke-width="4" stroke-linecap="butt" font-family="Sans Serif" font-weight="normal" text-anchor="start"><tspan x="0" dy="0">O</tspan></text><path d="M212.29337,130.93809l14.38768,-23.02029l2.87754,-28.77536l-9.35199,-16.54584l-23.73968,-12.94891l48.91811,8.63261l33.81105,20.86214l13.66829,21.58153l1.43877,16.54584z" fill="#ebebeb" stroke="#ebebeb" stroke-width="2" stroke-linecap="round"/><text transform="translate(242.48206,82.27197) rotate(112.83925) scale(3.17766,3.17766)" font-size="40" xml:space="preserve" fill="#ebebeb" stroke="#ebebeb" stroke-width="4" stroke-linecap="butt" font-family="Sans Serif" font-weight="normal" text-anchor="start"><tspan x="0" dy="0">O</tspan></text><path d="M316.4331,131.20196l4.07646,26.83881l16.55875,23.70885l17.87302,6.4637l26.44756,-5.63674l-42.74154,25.31137l-39.24378,6.19199l-24.42811,-7.47342l-11.86851,-11.6178z" fill="#ebebeb" stroke="#ebebeb" stroke-width="2" stroke-linecap="round"/><text transform="translate(336.03076,158.034) rotate(-133.13726) scale(3.17766,3.17766)" font-size="40" xml:space="preserve" fill="#ebebeb" stroke="#ebebeb" stroke-width="4" stroke-linecap="butt" font-family="Sans Serif" font-weight="normal" text-anchor="start"><tspan x="0" dy="0">O</tspan></text><path d="M261.23289,205.65941l-26.17356,-7.20301l-28.39641,5.47229l-13.1801,13.69341l-5.61859,26.45142l-5.71834,-49.34374l10.32093,-38.36528l16.771,-19.2696l15.44325,-6.11072z" fill="#ebebeb" stroke="#ebebeb" stroke-width="2" stroke-linecap="round"/><path d="M292,163.88888c0,6.16718 -5.52182,11.16667 -12.33333,11.16667c-6.81151,0 -12.33333,-4.99949 -12.33333,-11.16667c0,-6.16718 5.52182,-11.16666 12.33333,-11.16666c6.81151,0 12.33333,4.99948 12.33333,11.16666z" fill="none" stroke="#ebebeb" stroke-width="7" stroke-linecap="butt"/><path d="M242.85998,123.72708l11.05037,-16.67001l46.67603,30.94105l-11.05037,16.67001z" fill="#ebebeb" stroke="#ebebeb" stroke-width="0" stroke-linecap="butt"/><path d="M397.08795,180.13297c0,5.98308 -5.14873,10.83333 -11.5,10.83333c-6.35127,0 -11.5,-4.85025 -11.5,-10.83333c0,-5.98308 5.14873,-10.83333 11.5,-10.83333c6.35127,0 11.5,4.85025 11.5,10.83333z" fill="#ebebeb" stroke="none" stroke-width="0" stroke-linecap="butt"/></g></g></svg>