<svg version="1.1" xmlns="http://www.w3.org/2000/svg" xmlns:xlink="http://www.w3.org/1999/xlink" width="232.23232" height="209.98084" viewBox="0,0,232.23232,209.98084"><defs><linearGradient x1="193.76785" y1="152.06267" x2="363.65575" y2="177.07194" gradientTransform="translate(-37.72847,-94.0588) rotate(26.51894) scale(0.30375,0.30375)" gradientUnits="userSpaceOnUse" id="color-1"><stop offset="0" stop-color="#ea3a3a"/><stop offset="1" stop-color="#c73aea"/></linearGradient><linearGradient x1="193.76785" y1="152.06265" x2="363.6558" y2="177.07192" gradientTransform="translate(-37.72847,-94.0588) rotate(26.51894) scale(0.30375,0.30375)" gradientUnits="userSpaceOnUse" id="color-2"><stop offset="0" stop-color="#eb3b3b"/><stop offset="1" stop-color="#c83beb"/></linearGradient><linearGradient x1="207.88949" y1="91.14319" x2="309.25311" y2="91.14319" gradientUnits="userSpaceOnUse" id="color-3"><stop offset="0" stop-color="#ea3a3a"/><stop offset="1" stop-color="#c73aea"/></linearGradient><linearGradient x1="207.88949" y1="91.14319" x2="309.25311" y2="91.14319" gradientUnits="userSpaceOnUse" id="color-4"><stop offset="0" stop-color="#ea3a3a"/><stop offset="1" stop-color="#c73aea"/></linearGradient><linearGradient x1="344.9405" y1="101.64501" x2="196.65731" y2="188.24443" gradientTransform="translate(10.27173,81.59924) rotate(-114.82123) scale(0.30375,0.30375)" gradientUnits="userSpaceOnUse" id="color-5"><stop offset="0" stop-color="#ea3a3a"/><stop offset="1" stop-color="#c73aea"/></linearGradient><linearGradient x1="344.94051" y1="101.64503" x2="196.65728" y2="188.24447" gradientTransform="translate(10.27173,81.59924) rotate(-114.82123) scale(0.30375,0.30375)" gradientUnits="userSpaceOnUse" id="color-6"><stop offset="0" stop-color="#eb3b3b"/><stop offset="1" stop-color="#c83beb"/></linearGradient><linearGradient x1="371.95113" y1="158.03367" x2="292.79954" y2="221.35515" gradientUnits="userSpaceOnUse" id="color-7"><stop offset="0" stop-color="#ea3a3a"/><stop offset="1" stop-color="#c73aea"/></linearGradient><linearGradient x1="371.95113" y1="158.03367" x2="292.79954" y2="221.35515" gradientUnits="userSpaceOnUse" id="color-8"><stop offset="0" stop-color="#ea3a3a"/><stop offset="1" stop-color="#c73aea"/></linearGradient><linearGradient x1="293.12692" y1="232.0692" x2="269.84639" y2="61.93578" gradientTransform="translate(106.488,-44.11247) rotate(132.68504) scale(0.30375,0.30375)" gradientUnits="userSpaceOnUse" id="color-9"><stop offset="0" stop-color="#ea3a3a"/><stop offset="1" stop-color="#c73aea"/></linearGradient><linearGradient x1="293.12691" y1="232.0692" x2="269.84636" y2="61.93574" gradientTransform="translate(106.488,-44.11247) rotate(132.68504) scale(0.30375,0.30375)" gradientUnits="userSpaceOnUse" id="color-10"><stop offset="0" stop-color="#eb3b3b"/><stop offset="1" stop-color="#c83beb"/></linearGradient><linearGradient x1="230.67821" y1="235.45303" x2="202.45613" y2="138.09751" gradientUnits="userSpaceOnUse" id="color-11"><stop offset="0" stop-color="#ea3a3a"/><stop offset="1" stop-color="#c73aea"/></linearGradient><linearGradient x1="230.67821" y1="235.45303" x2="202.45613" y2="138.09751" gradientUnits="userSpaceOnUse" id="color-12"><stop offset="0" stop-color="#ea3a3a"/><stop offset="1" stop-color="#c73aea"/></linearGradient></defs><g transform="translate(-171.86279,-46.98669)"><g stroke-miterlimit="10"><text transform="translate(249.4049,221.62332) rotate(-26.51894) scale(3.29223,3.29223)" font-size="40" xml:space="preserve" fill="url(#color-1)" stroke="url(#color-2)" stroke-width="4" stroke-linecap="butt" font-family="Sans Serif" font-weight="normal" text-anchor="start"><tspan x="0" dy="0">O</tspan></text><path d="M224.65921,134.3718c0,0 1.04278,-4.35229 2.77076,-7.32086c2.68285,-4.60899 11.763,-17.64738 11.763,-17.64738l2.98128,-29.81283l-9.68917,-17.14238l-24.59559,-13.41577l50.68181,8.94385l35.03007,21.6143l14.16109,22.35962l1.49065,17.14238z" fill="url(#color-3)" stroke="url(#color-4)" stroke-width="2" stroke-linecap="round"/><text transform="translate(258.02264,82.08046) rotate(114.82123) scale(3.29223,3.29223)" font-size="40" xml:space="preserve" fill="url(#color-5)" stroke="url(#color-6)" stroke-width="4" stroke-linecap="butt" font-family="Sans Serif" font-weight="normal" text-anchor="start"><tspan x="0" dy="0">O</tspan></text><path d="M331.85145,134.75384c0,0 1.90459,4.04999 2.40972,7.44751c0.78427,5.27499 1.8389,21.12857 1.8389,21.12857l16.29598,25.14228l18.27475,7.33315l27.58668,-4.88882l-45.16298,24.67677l-40.85624,5.00524l-25.02592,-8.61353l-11.87277,-12.45473z" fill="url(#color-7)" stroke="url(#color-8)" stroke-width="2" stroke-linecap="round"/><text transform="translate(344.44002,159.2504) rotate(-132.68504) scale(3.29223,3.29223)" font-size="40" xml:space="preserve" fill="url(#color-9)" stroke="url(#color-10)" stroke-width="4" stroke-linecap="butt" font-family="Sans Serif" font-weight="normal" text-anchor="start"><tspan x="0" dy="0">O</tspan></text><path d="M267.52838,207.31053c0,0 -4.47053,0.21023 -7.80284,-0.6229c-5.17371,-1.29351 -20.22467,-6.38441 -20.22467,-6.38441l-29.46405,5.43721l-13.76684,14.07889l-6.03728,27.35831l-5.52084,-51.16795l11.00642,-39.66287l17.53269,-19.8266l16.04951,-6.20455z" fill="url(#color-11)" stroke="url(#color-12)" stroke-width="2" stroke-linecap="round"/></g></g></svg>