<svg version="1.1" xmlns="http://www.w3.org/2000/svg" xmlns:xlink="http://www.w3.org/1999/xlink" width="57.96465" height="26.67295" viewBox="0,0,57.96465,26.67295"><g transform="translate(-174.04531,-136.35316)"><g fill="#ffffff" stroke="#ffffff" stroke-width="0.45184" stroke-miterlimit="10"><path d="M174.749,160.99839c1.04189,-1.72816 2.6171,-4.0079 4.32876,-5.36839c1.8977,-1.50754 3.39851,-2.05912 4.27913,-2.16939c0.58297,-1.47084 6.40011,-17.17163 14.16458,-16.87745c6.79699,0.22062 11.23737,8.5306 12.4653,10.95748c4.83729,-4.85367 7.70246,-5.58909 11.3242,-3.78736c5.04816,2.53714 4.40318,10.73686 4.50242,11.14131c0.12402,0.5148 2.03413,-1.61789 4.35355,1.98564c1.41399,2.20618 2.09617,5.91997 1.24033,5.91997c-0.66977,0 -55.54196,-0.2574 -56.88152,0c-0.39691,0 -0.33487,-0.88255 0.22326,-1.80181z"/><path d="M183.35689,153.46061c0.58297,-1.47084 6.40011,-17.17163 14.16458,-16.87745c6.79699,0.22062 11.23737,8.5306 12.4653,10.95748c-3.57214,3.38283 -6.59855,9.11897 -9.71177,9.5602c-3.96907,0.5515 -11.48547,-4.08147 -16.91811,-3.64023z"/></g></g></svg>