<svg version="1.1" xmlns="http://www.w3.org/2000/svg" xmlns:xlink="http://www.w3.org/1999/xlink" width="660.43954" height="404.53482" viewBox="0,0,660.43954,404.53482"><defs><linearGradient x1="90.35457" y1="188.36979" x2="165.87621" y2="63.96331" gradientUnits="userSpaceOnUse" id="color-1"><stop offset="0" stop-color="#282828" stop-opacity="0"/><stop offset="1" stop-color="#282828"/></linearGradient><radialGradient cx="275" cy="150" r="307.05706" gradientUnits="userSpaceOnUse" id="color-2"><stop offset="0" stop-color="#1a1a1a" stop-opacity="0"/><stop offset="1" stop-color="#1a1a1a"/></radialGradient></defs><g transform="translate(73.28401,32.68168)"><g stroke-miterlimit="10"><path d="M-32.80781,331.68168v-363.36336h615.61562v363.36336z" fill="#000000" stroke="#000000" stroke-width="2" stroke-linecap="butt"/><path d="M587.15553,-13.91452l-17.85477,385.76767c0,0 -319.80313,-27.45317 -410.28438,-71.42488c-83.46141,-40.56024 -232.30039,-303.91282 -232.30039,-303.91282l119.23686,-5.35227z" fill="url(#color-1)" stroke="#ebebeb" stroke-width="0" stroke-linecap="butt"/><text transform="translate(246.43474,190.42554) rotate(-26.51878) scale(1.93246,1.93246)" font-size="40" xml:space="preserve" fill="#ffffff" stroke="#ffffff" stroke-width="4" stroke-linecap="butt" font-family="Sans Serif" font-weight="normal" text-anchor="start"><tspan x="0" dy="0">O</tspan></text><path d="M231.79149,140.42615c0,0 1.61034,-6.49582 3.06165,-8.97654c1.39409,-2.38289 5.48144,-7.0077 5.48144,-7.0077l1.92389,-17.48104l-5.58691,-10.11819l-14.3579,-8.01787l29.69519,5.54543l20.43447,12.89089l8.18123,13.20654l0.77485,10.07031z" fill="#ffffff" stroke="#ffffff" stroke-width="0.5" stroke-linecap="round"/><text transform="translate(238.26607,117.02301) rotate(93.32034) scale(1.93246,1.93246)" font-size="40" xml:space="preserve" fill="#ffffff" stroke="#ffffff" stroke-width="4" stroke-linecap="butt" font-family="Sans Serif" font-weight="normal" text-anchor="start"><tspan x="0" dy="0">O</tspan></text><path d="M288.92279,129.19934c0,0 4.83339,4.62897 6.26306,7.12222c1.37331,2.3949 3.35124,8.24156 3.35124,8.24156l14.2062,10.36687l11.55665,0.18829l14.09896,-8.46493l-19.58568,22.99904l-21.34947,11.31119l-15.52639,0.52541l-9.12078,-4.33857z" fill="#ffffff" stroke="#ffffff" stroke-width="0.5" stroke-linecap="round"/><text transform="translate(306.69248,154.23501) rotate(-133.40005) scale(1.93246,1.93246)" font-size="40" xml:space="preserve" fill="#ffffff" stroke="#ffffff" stroke-width="4" stroke-linecap="butt" font-family="Sans Serif" font-weight="normal" text-anchor="start"><tspan x="0" dy="0">O</tspan></text><path d="M263.09974,182.76632c0,0 -6.68354,0.34533 -9.47878,-0.32306c-2.68502,-0.64206 -8.29745,-3.21031 -8.29745,-3.21031l-17.28647,3.23524l-8.05985,8.28435l-3.50307,16.06749l-3.31655,-30.02593l6.40158,-23.29727l10.26175,-11.6637l9.41135,-3.6657z" fill="#ffffff" stroke="#ffffff" stroke-width="0.5" stroke-linecap="round"/><path d="M-32.05706,309.26791v-318.53583h614.11411v318.53583z" fill="url(#color-2)" stroke="#ebebeb" stroke-width="0" stroke-linecap="butt"/></g></g></svg>