<svg version="1.1" xmlns="http://www.w3.org/2000/svg" xmlns:xlink="http://www.w3.org/1999/xlink" width="757.30383" height="644.62643" viewBox="0,0,757.30383,644.62643"><defs><linearGradient x1="-52.90825" y1="185.00001" x2="542.90829" y2="185.00001" gradientUnits="userSpaceOnUse" id="color-1"><stop offset="0" stop-color="#6280eb"/><stop offset="1" stop-color="#8f00b3"/></linearGradient><linearGradient x1="-131.03001" y1="163.23424" x2="49.15016" y2="163.23424" gradientUnits="userSpaceOnUse" id="color-2"><stop offset="0" stop-color="#1a1a1a"/><stop offset="1" stop-color="#1a1a1a" stop-opacity="0"/></linearGradient></defs><g transform="translate(131.03001,137.30369)"><g stroke-miterlimit="10"><path d="M526.47349,-119.89421l16.43479,626.16923l-595.81654,-27.06477l10.41456,-615.48523z" fill="url(#color-1)" stroke="#000000" stroke-width="2"/><g stroke="#000000" stroke-width="0.25"><path d="M494.13978,208.53819c-4.36504,5.33604 -24.08049,7.11175 -24.08049,7.11175c23.11691,45.34597 79.13348,80.91364 79.13348,80.91364c-6.22687,3.55588 -28.45295,7.10878 -28.45295,7.10878c10.6706,16.00516 62.23601,30.23312 62.23601,30.23312c-0.8834,8.89192 -33.78306,32.22857 -33.78306,32.22857c34.67537,18.89292 68.46139,24.67437 68.46139,24.67437c-145.81619,124.47796 -277.82013,53.34706 -277.82013,53.34706c26.25707,-20.45186 47.53591,-63.12535 47.53591,-63.12535c-13.33565,3.55736 -34.98419,0 -34.98419,0c31.70149,-21.33971 43.8761,-67.57502 43.8761,-67.57502c-13.33714,7.11027 -29.2057,7.11027 -29.2057,7.11027c26.80196,-29.33932 26.39069,-88.45448 26.39069,-88.45448c-8.00109,8.00406 -14.96735,5.76809 -14.96735,5.76809c29.34378,-49.79118 15.11582,-144.49034 15.11582,-144.49034c58.68162,88.4619 100.54594,115.14953 100.54446,115.14953z" fill="#13600f"/><path d="M445.61061,219.74922c6.48224,0.27319 12.93478,-1.7861 18.7192,-4.70356c3.22479,-1.62724 6.28032,-5.12224 10.17768,-5.12224c3.7578,0 2.9902,2.78234 5.29744,0.34297c2.21815,-2.34435 5.2722,-2.622 8.32031,-2.60121c0.01188,-0.02376 0.01633,-0.04454 0.02376,-0.0683c0.27467,-0.85074 0.71563,-1.57082 1.27091,-2.15431c-1.2813,-0.89973 -1.6703,-3.09859 -0.38009,-4.15718c5.68049,-4.65159 12.09444,-2.72444 14.61992,4.16312c2.16174,5.88093 -1.86925,8.72266 -6.4763,9.14283c-0.72899,2.10829 -2.35326,3.53064 -4.89657,3.66871c-1.71187,0.09651 -5.52163,-0.84925 -6.93804,0.34445c-1.46095,1.22488 -2.81798,2.39483 -4.70207,2.91745c-3.27972,0.89973 -5.99525,-1.63912 -7.46511,-4.20766c0.26428,0.46174 -11.1368,3.41928 -11.45898,3.5143c-5.25587,1.57082 -11.01802,1.95685 -16.3214,0.47511c-0.84925,-0.23607 -0.6993,-1.59012 0.20934,-1.55449z" fill="#fdfdfd"/><path d="M374.66233,229.87197c8.21935,-3.16837 17.54035,-3.29457 24.37149,-9.29576c3.72068,-3.27081 7.63734,-5.07325 12.35277,-6.36495c5.35089,-1.46838 8.96615,-1.11947 13.87312,-4.68871c3.6123,-2.62942 6.04722,-2.64724 10.37811,-1.90934c1.0779,0.18559 0.81065,1.91527 -0.25537,1.8841c-9.90894,-0.29249 -7.36861,6.04276 -14.02604,8.48659c-3.95526,1.45056 -7.71009,2.16322 -11.46492,4.23587c-4.63229,2.5537 -8.08275,8.31288 -12.39138,11.61784c-3.9716,3.04811 -9.56449,4.03098 -14.52342,5.61517c-1.06899,2.10383 -3.34505,3.54103 -6.50154,2.76156c-1.18777,-0.29546 -2.19885,-0.75126 -3.24706,-1.37632c-4.76146,-2.86697 -3.25894,-9.15323 1.43423,-10.96606z" fill="#fdfdfd"/><path d="M414.7465,179.40227c5.55578,-1.26052 8.14808,-4.75701 12.66159,-7.45175c3.28714,-1.96427 7.02267,-1.96575 10.292,-4.14085c3.41186,-2.27606 7.87638,-2.6992 11.92072,-1.71187c1.0779,-0.81214 2.44235,-1.20113 3.74295,-0.91458c1.56934,-0.4172 3.3109,0.07572 4.43482,2.04593c1.07938,1.89152 1.38969,3.15649 1.6599,5.30041c0.15589,1.25903 -0.26576,2.22409 -0.95764,2.94269c-1.12689,3.04959 -5.90914,4.61596 -8.42572,1.9227c-2.21964,-2.3785 -7.13402,-1.13283 -10.09602,-1.15956c-3.81422,-0.03266 -7.61062,-2.42453 -11.25854,-0.00445c-4.72286,3.13719 -8.42424,6.88311 -14.1463,4.46897c-0.5731,-0.24349 -0.38305,-1.17143 0.17223,-1.29764z" fill="#fdfdfd"/><path d="M395.87583,91.28482c3.91518,6.42136 9.7382,11.12641 14.25914,17.05782c3.75186,4.91735 4.57439,10.60082 7.70118,15.76463c1.06305,1.75493 -0.67109,3.34802 -2.38444,3.10601c-2.9902,-0.42314 -4.73474,-2.20479 -6.07543,-4.4274c-1.08235,1.01257 -2.71553,1.42829 -4.32941,0.51371c-0.24498,-0.25982 -0.46768,-0.47659 -0.68297,-0.68148c-0.02524,0.03118 -0.05196,0.06384 -0.07424,0.09651c-0.52856,-0.53301 -1.07641,-0.93537 -1.62873,-1.27833c-0.53598,-0.08463 -0.69781,0.48401 -0.46026,1.74453c0.00891,4.09928 -6.51639,5.19351 -7.29883,0.98882c-1.40156,-7.55271 -0.54637,-14.50115 -3.26487,-21.86233c-0.26279,-0.70672 -0.28803,-1.33772 -0.15292,-1.8841c-0.88786,-1.59012 -1.84401,-3.20549 -2.83431,-4.91587c-2.70811,-4.68277 4.41849,-8.81917 7.22608,-4.22251z" fill="#fdfdfd"/><path d="M364.04666,312.30446l1.75938,-0.51519c1.6213,-0.47511 3.02287,-0.23458 4.16906,0.40533c7.81254,0.22865 16.80542,0.46917 22.817,-4.50757c2.64575,-2.18401 6.84154,-5.6122 10.58449,-5.22766c6.73909,0.69187 12.97041,-0.1069 19.94706,-0.58052c0.03415,-0.20934 0.09799,-0.41275 0.12026,-0.62655c0.24498,-1.31991 1.56934,-2.56409 2.85509,-2.85509c3.87063,-0.88043 8.68406,0.25537 11.91479,-2.0682c0.48253,-0.34891 1.23825,-0.38899 1.79056,-0.2331c8.07088,2.21815 9.61943,3.42522 16.91083,0.42463c0.91013,-0.37266 1.59458,0.98436 0.9324,1.60645c-3.46382,3.24854 -7.72494,6.00565 -12.78779,4.44076c-4.92329,-1.51886 -3.46976,-1.92121 -6.52826,1.13877c-1.66287,1.66436 -5.0005,1.83213 -7.6997,2.1558c-0.09354,0.38157 -0.16183,0.73938 -0.28655,1.14471c-0.60131,1.94497 -2.11274,2.87736 -4.0488,3.08522c-8.63655,0.92943 -15.27023,8.43017 -23.64101,2.35475c-2.10977,-1.53222 -12.05732,5.777 -14.88717,6.96031c-7.14145,2.98278 -14.76691,3.52618 -22.37901,4.29229c-6.70643,0.67703 -7.61655,-9.61349 -1.54261,-11.39514z" fill="#fdfdfd"/><path d="M489.5862,305.29961c7.32407,2.22261 8.67218,-5.29596 15.14997,-5.29596c2.57597,0 3.96863,0.68148 5.89578,2.17064c-0.00297,-0.00297 6.40206,-1.25012 6.9128,-1.26794c10.44938,-0.34742 20.65229,-7.94171 31.16552,-9.52292c2.7482,-0.4172 5.56469,0.21083 7.02119,2.85509c0.10096,0.18262 0.20341,0.36375 0.3014,0.54637c1.17737,2.1365 0.91161,4.8253 -0.84777,6.56983c-3.51282,3.4861 -10.98684,2.69326 -15.6221,3.67465c-5.30041,1.11799 -10.69436,3.18173 -16.15511,3.24112c-5.04652,0.05642 -12.66605,2.87588 -16.89153,-0.76017c-3.01099,-2.59527 -8.24607,1.7861 -11.5733,2.44383c-2.28942,0.45581 -4.59814,-0.92497 -6.54459,-1.83658c-1.60052,-0.74532 -0.46174,-3.31832 1.18777,-2.81798z" fill="#fdfdfd"/><path d="M425.19585,263.511c4.30565,-1.10759 9.37296,-0.06681 12.78334,-3.59299c0.89973,-0.92943 2.8744,-1.76829 4.07404,-1.64803c6.39761,0.65327 10.70178,3.59448 17.50471,-2.41117c3.02881,-2.67544 4.31605,-6.95734 8.64546,-8.14808c1.88558,-0.52113 4.43779,0.17223 6.13185,0.90567c4.39177,1.90637 4.61447,-2.86697 6.5535,-4.80452c3.71919,-3.72068 8.12432,-2.32654 11.6223,0.29843c6.45551,-0.97545 11.70396,3.34208 11.24667,10.66466c-0.22122,3.57072 -4.7481,4.54469 -6.40949,1.7089c-0.01782,0.01633 -0.03266,0.02969 -0.05345,0.04157c-1.09868,-0.18856 -2.20331,-0.37415 -3.30496,-0.55974c-2.33248,1.35108 -5.38058,0.98139 -7.28695,-0.94131c-1.08235,-1.09423 -7.82441,2.31615 -11.20955,1.86479c-8.10354,-1.07047 -11.38029,5.40582 -18.24261,8.19708c-4.81788,1.95685 -9.95052,0.29249 -14.35862,-1.68217c-1.74899,-0.78244 -5.06137,2.84767 -6.48669,3.23963c-3.27378,0.90122 -7.42651,-0.21974 -10.80125,-0.10096c-1.75047,0.05939 -2.08453,-2.59972 -0.40829,-3.03177z" fill="#fdfdfd"/><path d="M355.39081,373.14485c1.49807,1.19668 3.04365,1.37929 4.64565,0.55528c2.12907,-1.91676 5.437,-2.70811 7.99367,-1.03187c8.61428,5.65971 23.68407,-0.54192 33.79048,-0.04603c4.62487,0.22716 5.58696,-3.88103 9.83174,-5.04652c2.5047,-0.69039 10.26824,2.65763 11.48422,0.30437c0.92052,-1.7772 3.61972,-3.04959 5.55429,-2.25973c4.32199,1.76235 22.09543,3.99387 25.0886,-1.01257c0.42017,-0.70227 1.57082,-0.42314 1.55449,0.42017c-0.09502,4.82085 -1.56637,7.25725 -6.54311,8.08572c-5.7577,0.95912 -12.10631,2.45868 -18.17283,2.37256c-1.59755,3.05998 -3.88845,4.68277 -8.27576,5.16233c-3.51579,0.38454 -5.90765,-3.72513 -8.99733,0.14402c-1.50104,1.87667 -4.05325,3.18618 -6.41394,3.41483c-8.53707,0.83441 -16.68515,1.0289 -25.2341,2.51361c-5.65377,0.98139 -11.05069,1.13729 -16.17293,-0.70078c-4.1364,2.47798 -8.0783,2.19588 -13.74543,0.22865c-8.28319,-2.87885 -4.51648,-16.22044 3.6123,-13.10404z" fill="#fdfdfd"/><path d="M476.73157,384.61422c6.4377,0.68445 10.28161,-6.50748 16.23677,-7.74869c1.49213,-0.30882 3.01099,0.72899 4.28784,1.27833c3.90627,1.69108 9.35663,-1.75938 12.76107,-3.35247c6.48669,-3.0392 11.31942,-12.22509 18.10602,-13.62517c5.25735,-1.08384 9.0493,-0.0683 12.93181,2.28942c1.76383,-1.30654 3.72216,-2.0682 6.31001,-2.60269c7.88529,-1.6213 9.54668,-9.75008 14.50857,-14.71346c3.64347,-3.64496 7.98179,-4.14382 10.97942,-9.38039c1.12541,-1.95982 2.62942,-3.45492 4.34426,-4.69168c0.76462,-3.45789 3.82015,-6.46442 8.18817,-5.24844c3.73998,1.04227 5.05098,3.12383 6.27883,6.63665c1.28724,3.67911 -1.44759,7.02861 -4.67683,8.24607c-7.04791,2.65317 -8.53262,11.1947 -16.73712,13.35941c-2.73186,0.7186 -6.59062,5.06879 -9.26903,6.51193c-5.14748,2.77195 -11.48867,6.02198 -14.99852,10.87846c-1.65842,2.29239 -4.27893,3.18618 -6.88311,1.80541c-6.77324,-3.58854 -15.75573,7.01376 -22.61211,8.15847c-5.38801,0.89825 -10.98833,1.83065 -16.46987,1.74008c-5.90172,-0.09948 -7.25874,-2.33842 -13.29853,1.26646c-3.90033,2.32654 -6.25805,2.14986 -10.19698,-0.03118c-0.34742,-0.19153 -0.21825,-0.82253 0.20934,-0.7765z" fill="#fdfdfd"/><path d="M336.94479,436.89674c-0.23161,-0.01188 -0.46323,-0.02227 -0.6993,-0.03118c1.24122,0.15292 2.3978,0.60576 3.41038,1.26349c-1.30357,-2.14095 9.91191,1.29912 11.91627,2.24043c2.4854,1.1655 4.50015,2.61606 6.28923,4.30565c13.66674,-3.23666 32.12909,10.02624 44.15078,13.39355c14.24578,3.98941 32.5552,-1.48768 47.11574,-1.66584c8.25943,-0.10244 15.66664,-1.11205 23.69595,-2.97981c7.19787,-1.67772 14.67486,-0.54934 21.31447,-4.51351c9.02554,-5.38058 18.96715,-6.72128 28.24509,-11.2244c2.35178,-1.14026 11.05811,-0.62655 12.37653,-2.61309c1.80689,-2.72592 4.15124,-5.62705 7.48145,-6.54311c4.29526,-1.18183 7.7769,0.8641 11.25261,-2.82392c3.71771,-3.95378 9.03742,-4.32199 12.86203,-8.0783c5.2336,-5.14303 11.64902,-10.70475 18.92112,-12.4671c3.51727,-4.26705 8.39306,-3.42077 14.23538,-8.03821c3.18767,-2.52252 6.41543,-3.65832 10.28161,-4.58478c4.59666,-1.10314 6.47333,-4.51945 10.30536,-6.4763c3.33911,-1.70741 7.69524,1.88113 5.41622,5.41473c-1.40602,2.18401 -1.80689,8.2624 -7.33891,12.04841c-6.12145,4.18688 -14.25914,7.6804 -21.73465,10.25934c-1.06751,3.01841 -3.55736,4.92032 -6.79996,5.04949c-4.07701,0.16183 -7.9328,5.8839 -10.98536,8.06939c-5.24993,3.74592 -14.32298,2.76007 -17.9041,8.32921c-4.46452,6.94695 -13.10552,2.43789 -16.64804,8.5148c-4.37098,7.49926 -12.25478,3.55291 -17.88628,7.78581c-3.2916,2.47798 -6.5639,3.76671 -10.49095,4.8743c-5.55726,1.56785 -10.42414,4.50461 -15.86114,6.08434c-24.26014,7.04346 -48.73407,4.93963 -73.59997,5.49045c-11.49313,0.25389 -22.4384,0.6889 -33.50393,-2.75116c-3.80679,-1.18183 -10.46423,-0.47065 -14.74612,-1.23231c-4.12452,-0.72751 -12.32902,-6.44067 -16.01703,-2.0875c-4.03247,4.75849 -10.60824,2.31318 -13.76028,-1.77423c-5.44294,-7.04791 -18.11493,-3.86618 -20.77404,-13.76473c-1.5337,-5.73691 3.7964,-10.93933 9.47986,-9.47392z" fill="#fdfdfd"/></g><g stroke="#000000" stroke-width="0.25"><path d="M-12.35623,236.61155c-0.00077,0 21.67797,-13.81974 52.06526,-59.62825c0,0 -7.36771,49.03837 7.82747,74.82189c0,0 -3.60736,1.15786 -7.75059,-2.98691c0,0 -0.21297,30.61179 13.66598,45.80467c0,0 -8.21727,0 -15.12368,-3.68193c0,0 6.30442,23.94218 22.7205,34.99259c0,0 -11.21033,1.84212 -18.11597,0c0,0 11.01889,22.09775 24.61567,32.6884c0,0 -68.35602,36.83394 -143.86448,-27.62488c0,0 17.49552,-2.99383 35.45158,-12.77721c0,0 -17.03654,-12.08449 -17.49399,-16.68902c0,0 26.70228,-7.36771 32.22787,-15.65571c0,0 -11.5094,-1.83981 -14.73388,-3.68116c0,0 29.00724,-18.41812 40.97794,-41.89977c0,0 -10.20931,-0.91952 -12.46968,-3.6827z" fill="#13600f"/><path d="M12.77379,242.41699c0.47052,-0.01845 0.54817,0.68272 0.1084,0.80497c-2.74627,0.76729 -5.7301,0.5674 -8.45176,-0.24603c-0.16684,-0.0492 -6.07069,-1.58072 -5.93384,-1.81982c-0.76114,1.33008 -2.16733,2.64478 -3.86568,2.17887c-0.97564,-0.27063 -1.67836,-0.87647 -2.43489,-1.51075c-0.73346,-0.61814 -2.70628,-0.12839 -3.59275,-0.17837c-1.31701,-0.0715 -2.15811,-0.80804 -2.53561,-1.89978c-2.38568,-0.21758 -4.47306,-1.68912 -3.35364,-4.73446c1.30778,-3.56661 4.62913,-4.56455 7.57068,-2.1558c0.66811,0.54817 0.46668,1.68682 -0.19682,2.15273c0.28754,0.30215 0.51589,0.67503 0.65812,1.11557c0.00385,0.0123 0.00615,0.02306 0.0123,0.03537c1.57841,-0.01077 3.1599,0.13301 4.30853,1.34699c1.19477,1.26319 0.79728,-0.1776 2.74319,-0.1776c2.01818,0 3.60044,1.80983 5.27034,2.65247c2.99536,1.51076 6.3367,2.57713 9.69342,2.43566z" fill="#fdfdfd"/><path d="M49.51317,247.65889c2.43028,0.93874 3.20833,4.19398 0.74269,5.67859c-0.5428,0.32368 -1.06637,0.55971 -1.68144,0.7127c-1.63454,0.40364 -2.81315,-0.34059 -3.36671,-1.43003c-2.5679,-0.82035 -5.46408,-1.32931 -7.52071,-2.90772c-2.23115,-1.71142 -4.01791,-4.69371 -6.41667,-6.0161c-1.94438,-1.07329 -3.88875,-1.44233 -5.93692,-2.19347c-3.44744,-1.2655 -2.13197,-4.5461 -7.26315,-4.39464c-0.55202,0.01614 -0.69041,-0.87954 -0.13224,-0.97565c2.24268,-0.38211 3.50356,-0.37288 5.37413,0.98872c2.54099,1.84827 4.41309,1.66759 7.18396,2.42797c2.44181,0.66889 4.46998,1.60225 6.39667,3.29598c3.53739,3.10762 8.36411,3.17297 12.62037,4.81365z" fill="#fdfdfd"/><path d="M28.75626,221.52401c0.28754,0.06536 0.38596,0.54587 0.08919,0.67196c-2.96307,1.25012 -4.87977,-0.68964 -7.32542,-2.31418c-1.88901,-1.2532 -3.85492,-0.01461 -5.83005,0.0023c-1.53382,0.01384 -4.07865,-0.63121 -5.22805,0.60046c-1.30317,1.39466 -3.77958,0.58354 -4.36312,-0.99564c-0.35828,-0.37211 -0.57662,-0.87186 -0.4959,-1.52382c0.13992,-1.11019 0.30061,-1.76524 0.85955,-2.74473c0.582,-1.02024 1.48384,-1.27549 2.2965,-1.05945c0.67349,-0.14839 1.38005,0.05305 1.93822,0.4736c2.09429,-0.51127 4.40617,-0.29216 6.17294,0.88646c1.69297,1.12634 3.62735,1.12711 5.32954,2.14427c2.33725,1.39543 3.67962,3.20602 6.55659,3.85876z" fill="#fdfdfd"/><path d="M38.52811,175.89387c1.45386,-2.3803 5.14425,-0.23834 3.7419,2.18656c-0.51281,0.88569 -1.00794,1.72218 -1.4677,2.5456c0.06996,0.28293 0.05689,0.60969 -0.07919,0.97565c-1.40773,3.81186 -0.96488,7.41 -1.69066,11.32104c-0.40517,2.17733 -3.78419,1.6107 -3.77958,-0.51204c0.12301,-0.65274 0.03921,-0.9472 -0.23834,-0.90338c-0.28601,0.1776 -0.5697,0.38595 -0.84341,0.66196c-0.01154,-0.01692 -0.02537,-0.03383 -0.03844,-0.04998c-0.11148,0.1061 -0.22681,0.21835 -0.35366,0.35289c-0.83572,0.4736 -1.68144,0.25833 -2.24191,-0.26602c-0.69425,1.15094 -1.59763,2.07354 -3.14606,2.29265c-0.88723,0.12532 -1.78522,-0.69963 -1.23474,-1.6084c1.61916,-2.67399 2.04509,-5.61708 3.98793,-8.16345c2.34109,-3.07148 5.35645,-5.50791 7.38386,-8.83311z" fill="#fdfdfd"/><path d="M55.0103,290.34517c3.14529,0.9226 2.674,6.25137 -0.79881,5.90078c-3.9418,-0.39672 -7.89051,-0.67811 -11.58859,-2.22269c-1.46539,-0.61276 -6.61656,-4.39771 -7.70907,-3.60428c-4.33467,3.14605 -7.76981,-0.73808 -12.2421,-1.21937c-1.00256,-0.10764 -1.78522,-0.59046 -2.0966,-1.59763c-0.06458,-0.20989 -0.09995,-0.39518 -0.14839,-0.59277c-1.39774,-0.16761 -3.12607,-0.25448 -3.98716,-1.11634c-1.58379,-1.58456 -0.83111,-1.37621 -3.38055,-0.58969c-2.62171,0.81035 -4.82826,-0.61737 -6.62194,-2.29957c-0.3429,-0.32214 0.01153,-1.02485 0.48283,-0.83187c3.77573,1.55381 4.57762,0.92874 8.75699,-0.21989c0.286,-0.08073 0.67734,-0.05997 0.92721,0.12071c1.67298,1.20322 4.16553,0.61507 6.16987,1.07098c0.6658,0.15069 1.3516,0.79497 1.47846,1.47846c0.01153,0.11071 0.04459,0.21605 0.06227,0.32445c3.61274,0.24526 6.83953,0.65889 10.32925,0.30061c1.93822,-0.19913 4.11094,1.5761 5.481,2.70706c3.113,2.57712 7.76981,2.45257 11.8154,2.33417c0.59354,-0.33137 1.31931,-0.45592 2.15888,-0.20989l0.91107,0.26678z" fill="#fdfdfd"/><path d="M-9.99824,286.71781c0.85417,-0.25909 1.44387,1.07329 0.61507,1.45924c-1.00794,0.47206 -2.20347,1.18708 -3.38901,0.95104c-1.72295,-0.34059 -4.43385,-2.60941 -5.99304,-1.2655c-2.18809,1.88287 -6.13374,0.42286 -8.74699,0.39364c-2.82776,-0.03075 -5.62092,-1.09943 -8.36565,-1.67836c-2.40029,-0.5082 -6.27059,-0.09764 -8.08964,-1.90286c-0.91107,-0.90338 -1.04868,-2.29573 -0.439,-3.40208c0.05074,-0.09457 0.10379,-0.18836 0.15607,-0.28293c0.75422,-1.36929 2.2127,-1.6945 3.63581,-1.47846c5.4441,0.8188 10.7275,4.75138 16.13854,4.93128c0.26448,0.00923 3.58122,0.65504 3.57968,0.65658c0.99794,-0.77114 1.71911,-1.12403 3.05303,-1.12403c3.35441,0 4.05251,3.89337 7.84516,2.74242z" fill="#fdfdfd"/><path d="M23.34522,265.07829c0.86801,0.22373 0.69503,1.60071 -0.21143,1.56995c-1.74755,-0.06151 -3.89797,0.51896 -5.59325,0.05228c-0.73808,-0.20297 -2.45334,-2.08276 -3.35902,-1.67759c-2.28266,1.02254 -4.94051,1.88441 -7.43537,0.87108c-3.55354,-1.44541 -5.25035,-4.79905 -9.44663,-4.24472c-1.75294,0.23373 -5.2442,-1.53228 -5.80468,-0.96565c-0.98718,0.99564 -2.56559,1.18708 -3.77342,0.48744c-0.57047,0.0961 -1.14249,0.19221 -1.71142,0.28985c-0.01077,-0.00615 -0.01845,-0.01307 -0.02768,-0.02153c-0.86032,1.46847 -3.20449,0.96411 -3.31905,-0.88493c-0.2368,-3.79187 2.48102,-6.02764 5.8239,-5.52251c1.81137,-1.3593 4.09249,-2.08123 6.01841,-0.15454c1.00409,1.00333 1.11942,3.47512 3.39362,2.48794c0.87724,-0.3798 2.19886,-0.73884 3.17528,-0.46899c2.24191,0.6166 2.90849,2.83391 4.47691,4.21935c3.52278,3.10992 5.75163,1.58687 9.06452,1.24858c0.62121,-0.06227 1.64376,0.37211 2.10967,0.8534c1.76601,1.82597 4.39003,1.28702 6.61964,1.86057z" fill="#fdfdfd"/><path d="M59.4926,321.85033c4.20935,-1.61378 6.15988,5.29494 1.87057,6.78571c-2.93463,1.0187 -4.97587,1.16478 -7.11784,-0.1184c-2.65247,0.95181 -5.44717,0.87108 -8.37488,0.36289c-4.42693,-0.76883 -8.64628,-0.86955 -13.06705,-1.30163c-1.22244,-0.1184 -2.54406,-0.79651 -3.32135,-1.76831c-1.59994,-2.00357 -2.83852,0.12455 -4.65912,-0.07458c-2.27189,-0.24833 -3.4582,-1.08867 -4.28546,-2.67323c-3.14145,0.0446 -6.42897,-0.73193 -9.41049,-1.22859c-2.57712,-0.42901 -3.33904,-1.69066 -3.38824,-4.18705c-0.00846,-0.43669 0.58739,-0.58124 0.80497,-0.21758c1.54996,2.5925 10.75364,1.43695 12.99171,0.52434c1.00178,-0.40902 2.39952,0.24987 2.8762,1.17016c0.62967,1.2186 4.64989,-0.51512 5.94691,-0.15761c2.19809,0.60353 2.69629,2.73089 5.0912,2.61326c5.23343,-0.25679 13.03707,2.95462 17.49783,0.02384c1.32393,-0.86801 3.03688,-0.45823 4.13939,0.53434c0.82957,0.4267 1.62992,0.33214 2.40567,-0.28754z" fill="#fdfdfd"/><path d="M-3.34169,327.78957c0.22142,-0.02384 0.28831,0.30292 0.1084,0.4021c-2.03971,1.12941 -3.26061,1.22091 -5.28033,0.01615c-3.1276,-1.86673 -3.83031,-0.70733 -6.88642,-0.65582c-2.83852,0.0469 -5.73855,-0.43593 -8.52865,-0.90107c-3.55046,-0.59277 -8.20189,-6.08299 -11.7093,-4.22473c-1.34853,0.71501 -2.70552,0.25217 -3.5643,-0.9349c-1.81752,-2.51485 -5.1012,-4.19782 -7.76673,-5.63323c-1.38697,-0.74731 -3.38516,-2.99998 -4.79981,-3.37209c-4.24856,-1.12096 -5.01739,-5.54405 -8.66704,-6.91795c-1.67221,-0.63044 -3.08839,-2.36492 -2.42182,-4.27009c0.63582,-1.81905 1.3147,-2.89696 3.25139,-3.43668c2.26191,-0.62967 3.84416,0.92721 4.24011,2.71782c0.888,0.64044 1.66683,1.41465 2.2496,2.42951c1.55227,2.71167 3.7988,2.97 5.68551,4.85748c2.56943,2.5702 3.42975,6.77956 7.51302,7.61912c1.34007,0.27678 2.35416,0.67119 3.26753,1.34776c2.01049,-1.22091 3.97409,-1.74679 6.69652,-1.18554c3.51433,0.72501 6.01687,5.48177 9.3759,7.05557c1.76293,0.82495 4.58531,2.61172 6.60811,1.73602c0.6612,-0.28447 1.44771,-0.82188 2.22039,-0.66196c3.08378,0.64274 5.07428,4.36696 8.40794,4.01253z" fill="#fdfdfd"/><path d="M69.04455,354.86318c2.94308,-0.75884 5.70319,1.93515 4.90899,4.90591c-1.37698,5.1258 -7.93895,3.47819 -10.75749,7.12783c-1.63223,2.1166 -5.03738,3.38286 -7.12553,0.91876c-1.90977,-2.25422 -6.15834,0.70425 -8.29415,1.08098c-2.2173,0.39441 -5.66475,0.02614 -7.63603,0.63813c-5.7301,1.78138 -11.39792,1.55611 -17.34945,1.42464c-12.87639,-0.28523 -25.5498,0.8042 -38.11251,-2.84314c-2.81546,-0.81804 -5.33569,-2.33879 -8.21342,-3.15067c-2.03356,-0.57355 -3.72806,-1.24089 -5.43256,-2.52407c-2.91618,-2.19194 -6.99867,-0.14839 -9.26211,-4.03175c-1.83443,-3.14683 -6.30903,-0.81188 -8.62091,-4.40925c-1.85442,-2.88389 -6.55275,-2.37338 -9.27134,-4.31314c-1.58072,-1.13172 -3.57737,-4.0948 -5.68858,-4.1786c-1.67913,-0.06689 -2.96845,-1.05176 -3.52124,-2.61479c-3.87107,-1.33546 -8.08503,-3.14452 -11.25492,-5.31263c-2.86466,-1.96052 -3.07225,-5.10811 -3.80033,-6.23907c-1.18015,-1.82982 1.0756,-3.68808 2.8047,-2.80393c1.98435,1.01332 2.95615,2.7824 5.33646,3.35364c2.00204,0.47975 3.67348,1.06791 5.32416,2.37415c3.02535,2.39106 5.55019,1.95283 7.37155,4.16245c3.76573,0.9126 7.08785,3.79265 9.79798,6.45588c1.98051,1.94514 4.73523,2.13581 6.66039,4.18321c1.79984,1.90978 3.60275,0.85033 5.82697,1.46232c1.72449,0.47437 2.93848,1.97667 3.87414,3.38824c0.68272,1.0287 5.19115,0.76268 6.40898,1.35314c4.80443,2.33187 9.95252,3.02612 14.62625,5.81237c3.43821,2.05278 7.31004,1.46847 11.03734,2.33725c4.15784,0.96719 7.99354,1.49 12.27055,1.54304c7.53993,0.09226 17.02116,2.92848 24.39809,0.86263c6.22523,-1.7437 15.78565,-8.61167 22.86274,-6.93562c0.92645,-0.87493 1.96975,-1.62607 3.25677,-2.22961c1.03792,-0.48744 6.84567,-2.26882 6.17064,-1.16017c0.52435,-0.34059 1.12326,-0.57509 1.76601,-0.65428c-0.12224,0.00461 -0.24219,0.00999 -0.36212,0.01615z" fill="#fdfdfd"/></g><path d="M-131.03001,337.40842v-348.34834h180.18018v348.34835z" fill="url(#color-2)" stroke="none" stroke-width="0"/></g></g></svg>