<svg version="1.1" xmlns="http://www.w3.org/2000/svg" xmlns:xlink="http://www.w3.org/1999/xlink" width="97.53985" height="177" viewBox="0,0,97.53985,177"><defs><linearGradient x1="275.00001" y1="61.5" x2="275.00001" y2="238.5" gradientUnits="userSpaceOnUse" id="color-1"><stop offset="0" stop-color="#ff6c00"/><stop offset="1" stop-color="#ec6105"/></linearGradient></defs><g transform="translate(-226.23007,-61.5)"><g stroke-miterlimit="10"><path d="M229.21599,238.5c-1.64908,0 -2.98591,-1.34314 -2.98591,-3v-171c0,-1.65685 1.33683,-3 2.98591,-3h91.56803c1.64908,0 2.98591,1.34315 2.98591,3v171c0,1.65686 -1.33683,3 -2.98591,3z" fill="url(#color-1)" stroke="none" stroke-width="0"/><g><path d="M236.49971,186.76616c-0.64754,0.06225 -1.22294,-0.41221 -1.28519,-1.05974l-6.48522,-67.45351c-0.06225,-0.64754 0.41221,-1.22294 1.05974,-1.28519l47.31934,-4.54945c0.64754,-0.06225 1.22294,0.41221 1.2852,1.05974l6.48522,67.45351c0.06225,0.64754 -0.41221,1.22294 -1.05974,1.28519z" fill="#d30000" stroke="#af0000" stroke-width="1"/><text transform="translate(273.97024,180.21182) rotate(-5.49185) scale(0.41388,0.41388)" font-size="40" xml:space="preserve" fill="#9a0000" stroke="none" stroke-width="2" font-family="&quot;Snap ITC V2&quot;, Sans Serif" font-weight="normal" text-anchor="start"><tspan x="0" dy="0">!</tspan></text><path d="M278.16865,147.53816c1.12849,11.73756 -7.52194,22.17237 -19.32128,23.3068c-11.79933,1.13443 -22.27941,-7.46111 -23.4079,-19.19867c-1.12849,-11.73756 7.52194,-22.17237 19.32128,-23.3068c11.79934,-1.13443 22.27942,7.46111 23.40791,19.19867z" fill="#ff6868" stroke="#d01d1d" stroke-width="1"/><text transform="translate(241.08031,157.3113) rotate(-19.98404) scale(0.34081,0.34081)" font-size="40" xml:space="preserve" fill="#ffffff" stroke="none" stroke-width="2" font-family="&quot;Comic Sans MS&quot;, Sans Serif" font-weight="normal" text-anchor="start"><tspan x="0" dy="0">Oops!</tspan></text><text transform="translate(240.26545,160.91618) rotate(-5.4902) scale(0.06726,0.06726)" font-size="40" xml:space="preserve" fill="#ffffff" stroke="none" stroke-width="2" font-family="&quot;Comic Sans MS&quot;, Sans Serif" font-weight="normal" text-anchor="start"><tspan x="0" dy="0">(steal a card from someone)</tspan></text><text transform="translate(232.58099,132.71779) rotate(-5.49185) scale(0.41388,0.41388)" font-size="40" xml:space="preserve" fill="#9a0000" stroke="none" stroke-width="2" font-family="&quot;Snap ITC V2&quot;, Sans Serif" font-weight="normal" text-anchor="start"><tspan x="0" dy="0">!</tspan></text></g><g><path d="M262.28227,206.97236c-0.64667,-0.10708 -1.08408,-0.71813 -0.97699,-1.36479l11.15523,-67.36307c0.10709,-0.64667 0.71813,-1.08408 1.36479,-0.97699l47.25589,7.82551c0.64666,0.10709 1.08408,0.71813 0.97699,1.3648l-11.15523,67.36306c-0.10708,0.64666 -0.71813,1.08408 -1.36479,0.977z" fill="#8b00fc" stroke="#6600b9" stroke-width="1.5"/><path d="M313.01767,179.56588c-1.94112,11.72182 -13.06713,19.64237 -24.85065,17.69103c-11.78351,-1.95133 -19.76235,-13.03562 -17.82124,-24.75744c1.94111,-11.72182 13.06713,-19.64237 24.85065,-17.69103c11.78352,1.95134 19.76236,13.03561 17.82124,24.75743z" fill="#ad69ff" stroke="none" stroke-width="1.5"/><text transform="translate(275.34688,179.1742) rotate(-5.08957) scale(0.28147,0.28147)" font-size="40" xml:space="preserve" fill="#ffffff" stroke="none" stroke-width="3" font-family="&quot;Comic Sans MS&quot;, Sans Serif" font-weight="normal" text-anchor="start"><tspan x="0" dy="0">Sorry!</tspan></text><text transform="translate(278.26169,183.70628) rotate(9.39979) scale(0.06778,0.06778)" font-size="40" xml:space="preserve" fill="#ffffff" stroke="none" stroke-width="3" font-family="&quot;Comic Sans MS&quot;, Sans Serif" font-weight="normal" text-anchor="start"><tspan x="0" dy="0">(grab 2x cards)</tspan></text><path d="M273.50795,145.51282c0.54253,-3.2762 3.71904,-5.47889 7.09492,-4.91985c3.37588,0.55904 5.67276,3.66812 5.13023,6.94431c-0.54254,3.2762 -3.71904,5.47889 -7.09492,4.91985c-3.37588,-0.55904 -5.67276,-3.66812 -5.13023,-6.94431zM282.02324,145.84884c0.45658,0.07561 0.88618,-0.2223 0.95956,-0.66539c0.07337,-0.44309 -0.23727,-0.86358 -0.69385,-0.93919c-0.45658,-0.07561 -0.88618,0.2223 -0.95956,0.66539c-0.07337,0.44309 0.23727,0.86358 0.69384,0.93919zM277.56408,145.11042c0.45657,0.07561 0.88618,-0.2223 0.95955,-0.66539c0.07337,-0.44309 -0.23727,-0.86359 -0.69384,-0.93919c-0.45657,-0.07561 -0.88618,0.2223 -0.95955,0.66539c-0.07337,0.44309 0.23727,0.86358 0.69384,0.93919zM275.07669,149.61647l8.04941,1.33297c0,0 0.11602,-3.10406 -3.63988,-3.7096c-3.62313,-0.58413 -4.40952,2.37663 -4.40952,2.37663z" fill="#6000ae" stroke="none" stroke-width="1.5"/><path d="M298.07758,205.04815c0.54253,-3.2762 3.71904,-5.47889 7.09491,-4.91985c3.37588,0.55904 5.67277,3.66812 5.13023,6.94432c-0.54253,3.2762 -3.71904,5.47888 -7.09492,4.91985c-3.37588,-0.55904 -5.67276,-3.66812 -5.13022,-6.94432zM306.59283,205.3842c0.45657,0.07561 0.88619,-0.2223 0.95956,-0.66539c0.07337,-0.4431 -0.23727,-0.86359 -0.69385,-0.93919c-0.45657,-0.07561 -0.88618,0.2223 -0.95955,0.66539c-0.07337,0.4431 0.23726,0.86358 0.69384,0.93919zM302.13367,204.64578c0.45657,0.07561 0.88618,-0.22229 0.95955,-0.66539c0.07337,-0.44309 -0.23727,-0.86358 -0.69384,-0.93919c-0.45657,-0.07561 -0.88619,0.22229 -0.95956,0.66539c-0.07337,0.4431 0.23727,0.86358 0.69385,0.93919zM299.64627,209.15182l8.0494,1.33297c0,0 0.11602,-3.10406 -3.63988,-3.70959c-3.62313,-0.58413 -4.40952,2.37662 -4.40952,2.37662z" fill="#6000ae" stroke="none" stroke-width="1.5"/></g><text transform="translate(232.7607,89.09874) scale(0.64402,0.64402)" font-size="40" xml:space="preserve" fill="#ffffff" stroke="none" stroke-width="1" font-family="&quot;Snap ITC V2&quot;, Sans Serif" font-weight="normal" text-anchor="start"><tspan x="0" dy="0">Oops!</tspan></text><text transform="translate(228.61945,100.14342) scale(0.17501,0.17501)" font-size="40" xml:space="preserve" fill="#ffffff" stroke="none" stroke-width="1" font-family="&quot;Comic Sans MS&quot;, Sans Serif" font-weight="normal" text-anchor="start"><tspan x="0" dy="0">A card game about stealing.</tspan></text><text transform="translate(255.30749,222.0886) scale(0.13345,0.13345)" font-size="40" xml:space="preserve" fill="#e45f00" stroke="none" stroke-width="1" font-family="&quot;Comic Sans MS&quot;, Sans Serif" font-weight="normal" text-anchor="start"><tspan x="0" dy="0">(I will predict that</tspan><tspan x="0" dy="46.15px"> this will be a hit game </tspan><tspan x="0" dy="46.15px">in Codetorch)</tspan></text></g></g></svg>