<svg version="1.1" xmlns="http://www.w3.org/2000/svg" xmlns:xlink="http://www.w3.org/1999/xlink" width="2290.00405" height="69.49796" viewBox="0,0,2290.00405,69.49796"><g transform="translate(857.23955,-263.93883)"><g stroke-miterlimit="10"><path d="M-838.28359,333.43679c-10.46907,0 -18.95596,-2.23858 -18.95596,-5v-59.49796c0,-2.76142 8.48689,-5 18.95596,-5h2252.09213c10.46907,0 18.95596,2.23858 18.95596,5v59.49796c0,2.76142 -8.48689,5 -18.95596,5z" fill-opacity="0.57647" fill="#000000" stroke="none" stroke-width="0" stroke-linecap="butt"/><text transform="translate(155.85128,288.4248) scale(0.38583,0.38583)" font-size="40" xml:space="preserve" fill="#ffffff" stroke="#ffffff" stroke-width="2" stroke-linecap="butt" font-family="Sans Serif" font-weight="400" text-anchor="start"><tspan x="0" dy="0">Welcome To OpenDaily!</tspan></text><text transform="translate(343.27071,288.98763) rotate(-26.51881) scale(0.31563,0.31563)" font-size="40" xml:space="preserve" fill="#ffffff" stroke="#ffffff" stroke-width="4" stroke-linecap="butt" font-family="Sans Serif" font-weight="normal" text-anchor="start"><tspan x="0" dy="0">O</tspan></text><path d="M340.87898,280.82107c0,0 0.26302,-1.06098 0.50007,-1.46617c0.2277,-0.3892 0.8953,-1.14459 0.8953,-1.14459l0.31424,-2.85523l-0.91253,-1.65264l-2.34512,-1.30958l4.85021,0.90575l3.33763,2.10551l1.33627,2.15706l0.12656,1.64481z" fill="#ffffff" stroke="#ffffff" stroke-width="0.5" stroke-linecap="round"/><text transform="translate(341.9365,276.99857) rotate(93.32033) scale(0.31563,0.31563)" font-size="40" xml:space="preserve" fill="#ffffff" stroke="#ffffff" stroke-width="4" stroke-linecap="butt" font-family="Sans Serif" font-weight="normal" text-anchor="start"><tspan x="0" dy="0">O</tspan></text><path d="M350.21042,278.98736c0,0 0.78945,0.75607 1.02297,1.16329c0.22431,0.39117 0.54737,1.34612 0.54737,1.34612l2.32034,1.69325l1.88758,0.03076l2.30283,-1.3826l-3.19899,3.75651l-3.48707,1.84749l-2.53597,0.08582l-1.48972,-0.70863z" fill="#ffffff" stroke="#ffffff" stroke-width="0.5" stroke-linecap="round"/><text transform="translate(353.1128,283.07652) rotate(-133.39998) scale(0.31563,0.31563)" font-size="40" xml:space="preserve" fill="#ffffff" stroke="#ffffff" stroke-width="4" stroke-linecap="butt" font-family="Sans Serif" font-weight="normal" text-anchor="start"><tspan x="0" dy="0">O</tspan></text><path d="M345.99266,287.73663c0,0 -1.09164,0.05641 -1.5482,-0.05277c-0.43855,-0.10487 -1.35525,-0.52435 -1.35525,-0.52435l-2.82345,0.52842l-1.31644,1.35311l-0.57217,2.62435l-0.5417,-4.90423l1.04559,-3.80522l1.67608,-1.90507l1.53719,-0.59873z" fill="#ffffff" stroke="#ffffff" stroke-width="0.5" stroke-linecap="round"/><text transform="translate(135.87071,289.38763) rotate(-26.51918) scale(0.31563,0.31563)" font-size="40" xml:space="preserve" fill="#ffffff" stroke="#ffffff" stroke-width="4" stroke-linecap="butt" font-family="Sans Serif" font-weight="normal" text-anchor="start"><tspan x="0" dy="0">O</tspan></text><path d="M133.47899,281.22108c0,0 0.26302,-1.06098 0.50007,-1.46616c0.2277,-0.38921 0.8953,-1.14459 0.8953,-1.14459l0.31423,-2.85524l-0.91253,-1.65263l-2.34512,-1.30959l4.85021,0.90576l3.33763,2.10551l1.33626,2.15706l0.12656,1.64481z" fill="#ffffff" stroke="#ffffff" stroke-width="0.5" stroke-linecap="round"/><text transform="translate(134.5365,277.39857) rotate(93.32014) scale(0.31563,0.31563)" font-size="40" xml:space="preserve" fill="#ffffff" stroke="#ffffff" stroke-width="4" stroke-linecap="butt" font-family="Sans Serif" font-weight="normal" text-anchor="start"><tspan x="0" dy="0">O</tspan></text><path d="M142.81042,279.38736c0,0 0.78945,0.75606 1.02296,1.16329c0.22431,0.39117 0.54737,1.34612 0.54737,1.34612l2.32034,1.69325l1.88759,0.03075l2.30283,-1.3826l-3.19899,3.75651l-3.48708,1.84749l-2.53598,0.08582l-1.48972,-0.70864z" fill="#ffffff" stroke="#ffffff" stroke-width="0.5" stroke-linecap="round"/><text transform="translate(145.7128,283.47652) rotate(-133.40045) scale(0.31563,0.31563)" font-size="40" xml:space="preserve" fill="#ffffff" stroke="#ffffff" stroke-width="4" stroke-linecap="butt" font-family="Sans Serif" font-weight="normal" text-anchor="start"><tspan x="0" dy="0">O</tspan></text><path d="M138.59266,288.13663c0,0 -1.09165,0.0564 -1.5482,-0.05277c-0.43856,-0.10487 -1.35525,-0.52435 -1.35525,-0.52435l-2.82345,0.52842l-1.31644,1.35311l-0.57217,2.62435l-0.5417,-4.90423l1.04559,-3.80522l1.67609,-1.90506l1.53719,-0.59873z" fill="#ffffff" stroke="#ffffff" stroke-width="0.5" stroke-linecap="round"/></g></g></svg>