<svg version="1.1" xmlns="http://www.w3.org/2000/svg" xmlns:xlink="http://www.w3.org/1999/xlink" width="51.20896" height="47.53551" viewBox="0,0,51.20896,47.53551"><g transform="translate(-262.89543,-133.63027)"><g fill="#ffffff" stroke="#ffffff" stroke-miterlimit="10"><text transform="translate(277.58884,173.19445) rotate(-26.51881) scale(0.74251,0.74251)" font-size="40" xml:space="preserve" fill="#ffffff" stroke-width="4" stroke-linecap="butt" font-family="Sans Serif" font-weight="normal" text-anchor="start"><tspan x="0" dy="0">O</tspan></text><path d="M271.96244,153.9831c0,0 0.61874,-2.4959 1.17638,-3.44907c0.53565,-0.91558 2.10614,-2.69258 2.10614,-2.69258l0.73922,-6.71677l-2.14667,-3.88773l-5.51676,-3.08072l11.40983,2.13073l7.85157,4.95309l3.14349,5.07437l0.29772,3.86933z" stroke-width="0.5" stroke-linecap="round"/><text transform="translate(274.45018,144.99087) rotate(93.32053) scale(0.74251,0.74251)" font-size="40" xml:space="preserve" fill="#ffffff" stroke-width="4" stroke-linecap="butt" font-family="Sans Serif" font-weight="normal" text-anchor="start"><tspan x="0" dy="0">O</tspan></text><path d="M293.91409,149.6694c0,0 1.85714,1.7786 2.40647,2.73658c0.52767,0.9202 1.28765,3.16667 1.28765,3.16667l5.45847,3.98328l4.44043,0.07235l5.41727,-3.25249l-7.52544,8.83696l-8.20314,4.34612l-5.96573,0.20188l-3.50449,-1.66702z" stroke-width="0.5" stroke-linecap="round"/><text transform="translate(300.74177,159.2889) rotate(-133.39998) scale(0.74251,0.74251)" font-size="40" xml:space="preserve" fill="#ffffff" stroke-width="4" stroke-linecap="butt" font-family="Sans Serif" font-weight="normal" text-anchor="start"><tspan x="0" dy="0">O</tspan></text><path d="M283.99206,170.25153c0,0 -2.56803,0.13269 -3.64205,-0.12413c-1.03167,-0.2467 -3.18814,-1.2335 -3.18814,-1.2335l-6.64201,1.24308l-3.09685,3.18311l-1.34599,6.17364l-1.27432,-11.53691l2.45969,-8.95155l3.94289,-4.48156l3.61614,-1.40848z" stroke-width="0.5" stroke-linecap="round"/></g></g></svg>