<svg version="1.1" xmlns="http://www.w3.org/2000/svg" xmlns:xlink="http://www.w3.org/1999/xlink" width="227.50741" height="204.55246" viewBox="0,0,227.50741,204.55246"><defs><linearGradient x1="192.26614" y1="150.56116" x2="362.15403" y2="175.57042" gradientTransform="translate(-37.52407,-93.44709) rotate(26.51891) scale(0.30375,0.30375)" gradientUnits="userSpaceOnUse" id="color-1"><stop offset="0" stop-color="#ea3a3a"/><stop offset="1" stop-color="#c73aea"/></linearGradient><linearGradient x1="192.26614" y1="150.56114" x2="362.15408" y2="175.5704" gradientTransform="translate(-37.52407,-93.44709) rotate(26.51891) scale(0.30375,0.30375)" gradientUnits="userSpaceOnUse" id="color-2"><stop offset="0" stop-color="#eb3b3b"/><stop offset="1" stop-color="#c83beb"/></linearGradient><linearGradient x1="343.43879" y1="100.14349" x2="195.15561" y2="186.7429" gradientTransform="translate(10.49417,80.99384) rotate(-114.8212) scale(0.30375,0.30375)" gradientUnits="userSpaceOnUse" id="color-3"><stop offset="0" stop-color="#ea3a3a"/><stop offset="1" stop-color="#c73aea"/></linearGradient><linearGradient x1="343.4388" y1="100.14351" x2="195.15558" y2="186.74294" gradientTransform="translate(10.49417,80.99384) rotate(-114.8212) scale(0.30375,0.30375)" gradientUnits="userSpaceOnUse" id="color-4"><stop offset="0" stop-color="#eb3b3b"/><stop offset="1" stop-color="#c83beb"/></linearGradient><linearGradient x1="370.44963" y1="156.53218" x2="291.29804" y2="219.85365" gradientUnits="userSpaceOnUse" id="color-5"><stop offset="0" stop-color="#ea3a3a"/><stop offset="1" stop-color="#c73aea"/></linearGradient><linearGradient x1="370.44963" y1="156.53218" x2="291.29804" y2="219.85365" gradientUnits="userSpaceOnUse" id="color-6"><stop offset="0" stop-color="#ea3a3a"/><stop offset="1" stop-color="#c73aea"/></linearGradient><linearGradient x1="291.6252" y1="230.56764" x2="268.34467" y2="60.43422" gradientTransform="translate(105.84353,-44.08633) rotate(132.68508) scale(0.30375,0.30375)" gradientUnits="userSpaceOnUse" id="color-7"><stop offset="0" stop-color="#ea3a3a"/><stop offset="1" stop-color="#c73aea"/></linearGradient><linearGradient x1="291.62519" y1="230.56764" x2="268.34464" y2="60.43418" gradientTransform="translate(105.84353,-44.08633) rotate(132.68508) scale(0.30375,0.30375)" gradientUnits="userSpaceOnUse" id="color-8"><stop offset="0" stop-color="#eb3b3b"/><stop offset="1" stop-color="#c83beb"/></linearGradient><linearGradient x1="229.17671" y1="233.95153" x2="200.95463" y2="136.59601" gradientUnits="userSpaceOnUse" id="color-9"><stop offset="0" stop-color="#ea3a3a"/><stop offset="1" stop-color="#c73aea"/></linearGradient><linearGradient x1="229.17671" y1="233.95153" x2="200.95463" y2="136.59601" gradientUnits="userSpaceOnUse" id="color-10"><stop offset="0" stop-color="#ea3a3a"/><stop offset="1" stop-color="#c73aea"/></linearGradient></defs><g transform="translate(-175.08619,-50.91357)"><g stroke-miterlimit="10"><text transform="translate(247.9034,220.12182) rotate(-26.51891) scale(3.29223,3.29223)" font-size="40" xml:space="preserve" fill="url(#color-1)" stroke="url(#color-2)" stroke-width="4" stroke-linecap="butt" font-family="Sans Serif" font-weight="normal" text-anchor="start"><tspan x="0" dy="0">O</tspan></text><text transform="translate(256.52114,80.57896) rotate(114.8212) scale(3.29223,3.29223)" font-size="40" xml:space="preserve" fill="url(#color-3)" stroke="url(#color-4)" stroke-width="4" stroke-linecap="butt" font-family="Sans Serif" font-weight="normal" text-anchor="start"><tspan x="0" dy="0">O</tspan></text><path d="M330.34995,133.25234c0,0 1.90459,4.04999 2.40972,7.44751c0.78427,5.27499 1.8389,21.12857 1.8389,21.12857l16.29598,25.14228l18.27475,7.33315l27.58668,-4.88882l-45.16298,24.67677l-40.85624,5.00524l-25.02592,-8.61353l-11.87277,-12.45473z" fill="url(#color-5)" stroke="url(#color-6)" stroke-width="2" stroke-linecap="round"/><text transform="translate(342.93852,157.7489) rotate(-132.68508) scale(3.29223,3.29223)" font-size="40" xml:space="preserve" fill="url(#color-7)" stroke="url(#color-8)" stroke-width="4" stroke-linecap="butt" font-family="Sans Serif" font-weight="normal" text-anchor="start"><tspan x="0" dy="0">O</tspan></text><path d="M266.02688,205.80903c0,0 -4.47053,0.21023 -7.80284,-0.6229c-5.17371,-1.29351 -20.22467,-6.38441 -20.22467,-6.38441l-29.46405,5.43721l-13.76684,14.07889l-6.03728,27.35831l-5.52084,-51.16795l11.00642,-39.66287l17.53269,-19.8266l16.04951,-6.20455z" fill="url(#color-9)" stroke="url(#color-10)" stroke-width="2" stroke-linecap="round"/></g></g></svg>