<svg version="1.1" xmlns="http://www.w3.org/2000/svg" xmlns:xlink="http://www.w3.org/1999/xlink" width="597.87939" height="453.93615" viewBox="0,0,597.87939,453.93615"><defs><linearGradient x1="-14.92876" y1="146.62177" x2="580.88778" y2="146.62177" gradientUnits="userSpaceOnUse" id="color-1"><stop offset="0" stop-color="#ea3a3a"/><stop offset="1" stop-color="#c73aea"/></linearGradient></defs><g transform="translate(15.95233,80.33943)"><g stroke-miterlimit="10"><path d="M564.45299,-67.79946l16.43479,440.36247l-595.81654,-19.03369l10.41456,-432.84879z" fill="url(#color-1)" stroke="#000000" stroke-width="2" stroke-linecap="butt"/><path d="M222.06932,198.79581c-3.23921,0 -5.86511,-2.62589 -5.86511,-5.86511v-97.86138c0,-3.23921 2.62589,-5.86511 5.86511,-5.86511h97.86138c3.23921,0 5.86511,2.62589 5.86511,5.86511v97.86138c0,3.23921 -2.62589,5.86511 -5.86511,5.86511z" fill="#ffffff" stroke="none" stroke-width="0" stroke-linecap="butt"/><text transform="translate(272.68221,218.57058) scale(0.5,0.5)" font-size="40" xml:space="preserve" fill="#fffefe" stroke="#ffffff" stroke-width="2" stroke-linecap="butt" font-family="Sans Serif" font-weight="normal" text-anchor="middle"><tspan x="0" dy="0">OpenDaily</tspan></text><text transform="translate(211.33037,216.83911) scale(0.37091,0.5)" font-size="40" xml:space="preserve" fill="#fffefe" stroke="#ffffff" stroke-width="2" stroke-linecap="butt" font-family="Sans Serif" font-weight="normal" text-anchor="start"><tspan x="0" dy="0"> </tspan><tspan x="0" dy="46.150000000000006px">A mod of CT daily</tspan></text><text transform="translate(253.43608,180.51726) rotate(-26.51881) scale(1.45881,1.45881)" font-size="40" xml:space="preserve" fill="#000000" stroke="#000000" stroke-width="4" stroke-linecap="butt" font-family="Sans Serif" font-weight="normal" text-anchor="start"><tspan x="0" dy="0">O</tspan></text><path d="M242.38188,142.77269c0,0 1.21564,-4.9037 2.31124,-6.77639c1.05239,-1.79884 4.13794,-5.29012 4.13794,-5.29012l1.45235,-13.19645l-4.21757,-7.63823l-10.83879,-6.0527l22.41691,4.18625l15.42599,9.73134l6.17602,9.96962l0.58493,7.60208z" fill="#000000" stroke="#000000" stroke-width="0.5" stroke-linecap="round"/><text transform="translate(247.26955,125.10564) rotate(93.32033) scale(1.45881,1.45881)" font-size="40" xml:space="preserve" fill="#000000" stroke="#000000" stroke-width="4" stroke-linecap="butt" font-family="Sans Serif" font-weight="normal" text-anchor="start"><tspan x="0" dy="0">O</tspan></text><path d="M285.51032,134.29756c0,0 3.64873,3.49442 4.728,5.37656c1.03671,1.80792 2.52985,6.22156 2.52985,6.22156l10.72426,7.82596l8.72412,0.14215l10.64332,-6.39017l-14.78524,17.36199l-16.11672,8.53883l-11.72088,0.39663l-6.88528,-3.2752z" fill="#000000" stroke="#000000" stroke-width="0.5" stroke-linecap="round"/><text transform="translate(298.92468,153.197) rotate(-133.39998) scale(1.45881,1.45881)" font-size="40" xml:space="preserve" fill="#000000" stroke="#000000" stroke-width="4" stroke-linecap="butt" font-family="Sans Serif" font-weight="normal" text-anchor="start"><tspan x="0" dy="0">O</tspan></text><path d="M266.0165,174.7353c0,0 -5.04541,0.2607 -7.15554,-0.24388c-2.02692,-0.48469 -6.26374,-2.42346 -6.26374,-2.42346l-13.04957,2.44228l-6.08439,6.25386l-2.64447,12.12936l-2.50366,-22.66658l4.83256,-17.58712l7.7466,-8.80493l7.10464,-2.76724z" fill="#000000" stroke="#000000" stroke-width="0.5" stroke-linecap="round"/></g></g></svg>