<svg version="1.1" xmlns="http://www.w3.org/2000/svg" xmlns:xlink="http://www.w3.org/1999/xlink" width="612.61261" height="325.82583" viewBox="0,0,612.61261,325.82583"><g transform="translate(31.30631,12.91292)"><g stroke-miterlimit="10"><path d="M-31.30631,312.91291v-325.82583h612.61261v325.82583z" fill="#000000" stroke="none" stroke-width="1" stroke-linecap="butt"/><text transform="translate(139.11411,29.12913) scale(0.5,0.5)" font-size="40" xml:space="preserve" fill="#ffffff" stroke="#fffcfc" stroke-width="2" stroke-linecap="butt" font-family="Sans Serif" font-weight="normal" text-anchor="start"><tspan x="0" dy="0">click here to close the player</tspan></text><text transform="translate(264.02433,165.53277) rotate(-26.51881) scale(0.74251,0.74251)" font-size="40" xml:space="preserve" fill="#ffffff" stroke="#ffffff" stroke-width="4" stroke-linecap="butt" font-family="Sans Serif" font-weight="normal" text-anchor="start"><tspan x="0" dy="0">O</tspan></text><path d="M258.39793,146.32142c0,0 0.61874,-2.4959 1.17638,-3.44907c0.53565,-0.91558 2.10614,-2.69258 2.10614,-2.69258l0.73922,-6.71677l-2.14667,-3.88773l-5.51676,-3.08072l11.40983,2.13073l7.85157,4.95309l3.14349,5.07437l0.29772,3.86933z" fill="#ffffff" stroke="#ffffff" stroke-width="0.5" stroke-linecap="round"/><text transform="translate(260.88567,137.32919) rotate(93.32033) scale(0.74251,0.74251)" font-size="40" xml:space="preserve" fill="#ffffff" stroke="#ffffff" stroke-width="4" stroke-linecap="butt" font-family="Sans Serif" font-weight="normal" text-anchor="start"><tspan x="0" dy="0">O</tspan></text><path d="M280.34958,142.00772c0,0 1.85714,1.7786 2.40647,2.73658c0.52767,0.9202 1.28765,3.16667 1.28765,3.16667l5.45847,3.98328l4.44043,0.07235l5.41727,-3.25249l-7.52544,8.83696l-8.20314,4.34612l-5.96573,0.20188l-3.50449,-1.66702z" fill="#ffffff" stroke="#ffffff" stroke-width="0.5" stroke-linecap="round"/><text transform="translate(287.17726,151.62722) rotate(-133.39998) scale(0.74251,0.74251)" font-size="40" xml:space="preserve" fill="#ffffff" stroke="#ffffff" stroke-width="4" stroke-linecap="butt" font-family="Sans Serif" font-weight="normal" text-anchor="start"><tspan x="0" dy="0">O</tspan></text><path d="M270.42755,162.58985c0,0 -2.56803,0.13269 -3.64205,-0.12413c-1.03167,-0.2467 -3.18814,-1.2335 -3.18814,-1.2335l-6.64201,1.24308l-3.09685,3.18311l-1.34599,6.17364l-1.27432,-11.53691l2.45969,-8.95155l3.94289,-4.48156l3.61614,-1.40848z" fill="#ffffff" stroke="#ffffff" stroke-width="0.5" stroke-linecap="round"/><text transform="translate(229.50601,196.5) scale(0.5,0.5)" font-size="40" xml:space="preserve" fill="#ffffff" stroke="none" stroke-width="1" stroke-linecap="butt" font-family="Sans Serif" font-weight="normal" text-anchor="start"><tspan x="0" dy="0">Loading...</tspan></text></g></g></svg>