<svg version="1.1" xmlns="http://www.w3.org/2000/svg" xmlns:xlink="http://www.w3.org/1999/xlink" width="47.75" height="41.75" viewBox="0,0,47.75,41.75"><g transform="translate(-251.125,-128.25)"><g stroke-miterlimit="10"><path d="M282.53443,159.16344l4.616,-17.75643" fill="#666666" stroke="#666666" stroke-width="3" stroke-linecap="butt"/><path d="M269.32661,155.72671l4.616,-17.75643" fill="#666666" stroke="#666666" stroke-width="3" stroke-linecap="butt"/><path d="M286.4154,144.17711l-13.20512,-3.43976l0.84924,-3.26051l13.20512,3.43976z" fill="#666666" stroke="#666666" stroke-width="3" stroke-linecap="butt"/><path d="M268.50921,158.05509c-0.60412,0.61541 -1.44292,1.00086 -2.37286,1.00962c-0.92977,0.00876 -1.77564,-0.36069 -2.39122,-0.96481c-0.61558,-0.60412 -1.00086,-1.44275 -1.00962,-2.37269c-0.00876,-0.92994 0.36069,-1.77581 0.96464,-2.39139c0.60412,-0.61558 1.44292,-1.00086 2.37269,-1.00962c0.92994,-0.00876 1.77581,0.36069 2.39139,0.96481c0.61558,0.60412 1.00086,1.44275 1.00962,2.37269c0.00876,0.92994 -0.36069,1.77581 -0.96464,2.39139z" fill="#666666" stroke="#666666" stroke-width="3" stroke-linecap="butt"/><path d="M281.70843,161.51338c-0.60412,0.61558 -1.44292,1.00086 -2.37269,1.00962c-0.92994,0.00876 -1.77581,-0.36069 -2.39139,-0.96464c-0.61558,-0.60412 -1.00086,-1.44292 -1.00962,-2.37269c-0.00876,-0.92994 0.36069,-1.77581 0.96464,-2.39139c0.60412,-0.61558 1.44292,-1.00086 2.37286,-1.00962c0.92977,-0.00876 1.77564,0.36069 2.39122,0.96464c0.61558,0.60412 1.00086,1.44292 1.00962,2.37286c0.00876,0.92977 -0.36069,1.77564 -0.96464,2.39122z" fill="#666666" stroke="#666666" stroke-width="3" stroke-linecap="butt"/><path d="M251.125,170v-41.75h47.75v41.75z" fill="none" stroke="#ffffff" stroke-width="0" stroke-linecap="butt"/><path d="M264.875,135.875l22.25,28" fill="none" stroke="#af0000" stroke-width="3.5" stroke-linecap="round"/></g></g></svg>