<svg version="1.1" xmlns="http://www.w3.org/2000/svg" xmlns:xlink="http://www.w3.org/1999/xlink" width="275.59637" height="189.57594" viewBox="0,0,275.59637,189.57594"><g transform="translate(-189.19774,-116.37304)"><g fill-opacity="0.57647" fill="#000000" stroke="none" stroke-width="0" stroke-miterlimit="10"><path d="M192.24686,305.94898c-1.68399,0 -3.04912,-1.36513 -3.04912,-3.04912v-173.79973c0,-1.68398 1.36513,-3.04912 3.04912,-3.04912h93.50629c1.68399,0 3.04912,1.36514 3.04912,3.04912v173.79973c0,1.68399 -1.36513,3.04912 -3.04912,3.04912z"/><path d="M373.11681,287.18233c-1.59891,0 -2.89507,-1.29616 -2.89507,-2.89508v-165.01913c0,-1.59891 1.29616,-2.89508 2.89507,-2.89508h88.78222c1.59892,0 2.89508,1.29617 2.89508,2.89508v165.01913c0,1.59891 -1.29616,2.89508 -2.89508,2.89508z"/></g></g></svg>