<svg version="1.1" xmlns="http://www.w3.org/2000/svg" xmlns:xlink="http://www.w3.org/1999/xlink" width="15.59488" height="15.59489" viewBox="0,0,15.59488,15.59489"><defs><linearGradient x1="236.17542" y1="176.31487" x2="236.17542" y2="182.35689" gradientUnits="userSpaceOnUse" id="color-1"><stop offset="0" stop-color="#ff9500"/><stop offset="1" stop-color="#ff4a00"/></linearGradient></defs><g transform="translate(-231.78298,-166.76202)"><g stroke="none" stroke-width="0.5" stroke-miterlimit="10"><path d="M247.22112,168.56059c0,0.02222 -0.00058,0.04431 -0.00172,0.06625l0.01043,0.04694l0.06966,0.27864v0.03483l0.00779,0.03505l-0.00779,0.01168v0.07802l0.04104,0.16418v0.15389l0.03733,0.14928v0.94039l-0.04874,0.19494l-0.01541,0.20034l-0.01422,0.04266v0.18579l0.00779,0.01168l-0.00779,0.03504v0.03483l-0.06966,0.27864l-0.06231,0.28038l-0.0035,0.007l-0.02126,0.10631v0.10813l0.00779,0.01168l-0.00779,0.03505v0.03483l-0.06966,0.27864l-0.06231,0.28037l-0.01557,0.03115l-0.00871,0.03483l-0.01219,0.00697l-0.05746,0.11494l-0.00049,0.00194l-0.0623,0.28037l-0.01558,0.03116l-0.0087,0.03483l-0.00048,0.00027v0.15519l0.00779,0.01168l-0.00779,0.03504v0.03483l-0.06966,0.27864l-0.04513,0.20308l0.00176,0.00647l-0.00509,0.00847l-0.01386,0.06236l-0.01558,0.03115l-0.00871,0.03483l-0.01219,0.00697l-0.0419,0.08378l-0.13076,0.15257l-0.10339,0.1723l-0.06921,0.06921l-0.04491,0.06736l-0.27866,0.55732l-0.06641,0.07749l-0.00346,0.06227l-0.18813,0.16126l-0.16125,0.18813l-0.06091,0.00338l-0.22418,0.22417l-0.10676,0.06405l-0.08374,0.09213l-0.2351,0.15673l-0.04736,0.01692l-0.02101,0.03677l-0.13739,0.03435l-0.23062,0.13178l-0.00098,0.00443l-0.01558,0.03116l-0.00049,0.00193l-0.0623,0.28038l-0.01558,0.03115l-0.00871,0.03483l-0.01219,0.00697l-0.04189,0.08379l-0.06642,0.07748l-0.00346,0.06227l-0.18813,0.16126l-0.04584,0.05347l-0.00114,0.02037l-0.06154,0.05275l-0.05275,0.06154l-0.02037,0.00113l-0.05347,0.04584l-0.04584,0.05347l-0.00113,0.02037l-0.06154,0.05274l-0.05275,0.06154l-0.02037,0.00114l-0.05347,0.04583l-0.16126,0.18813l-0.06227,0.00346l-0.07748,0.06642l-0.39724,0.19862l-0.00697,0.01219l-0.03483,0.0087l-0.03115,0.01558l-0.28037,0.06231l-0.27864,0.06966h-0.03483l-0.03505,0.00778l-0.01168,-0.00778h-0.22871l-0.01168,0.00778l-0.03505,-0.00778h-0.03483l-0.27864,-0.06966l-0.28037,-0.06231l-0.03116,-0.01558l-0.03483,-0.0087l-0.00696,-0.01219l-0.08379,-0.0419l-0.48914,-0.41926l-0.00151,-0.02711l-0.27604,-0.01533l-0.19983,-0.23314l-0.03527,-0.00196l-0.16125,-0.18813l-0.18813,-0.16126l-0.00223,-0.04021l-0.04021,-0.00224l-0.16125,-0.18813l-0.18813,-0.16126l-0.00346,-0.06226l-0.06642,-0.07749l-0.0419,-0.08378l-0.01219,-0.00697l-0.00871,-0.03483l-0.01558,-0.03115l-0.01238,-0.05572l-0.16323,-0.09328l-0.04903,0.00272l-0.03311,-0.04966l-0.50162,-0.28664l-0.15625,-0.625v-0.07517l-0.00779,-0.01168l0.00779,-0.03505v-0.58339l0.15625,-0.625l0.04285,-0.02449l0.00274,-0.04928l0.20571,-0.17632l0.03788,-0.07575l0.13076,-0.15257l0.10339,-0.1723l0.22417,-0.22417l0.00338,-0.06091l0.18813,-0.16126l0.16126,-0.18813l0.00293,-0.00016l0.048,-0.21599l0.01557,-0.03116l0.00871,-0.03483l0.01219,-0.00696l0.04189,-0.08378l0.06642,-0.07749l0.00346,-0.06226l0.18813,-0.16126l0.04584,-0.05347l0.00113,-0.02037l0.06154,-0.05274l0.05275,-0.06154l0.02037,-0.00114l0.05347,-0.04583l0.16125,-0.18813l0.06091,-0.00338l0.06744,-0.06744l0.1723,-0.10339l0.06611,-0.05667l0.38851,-0.38851l0.10675,-0.06406l0.08375,-0.09212l0.15408,-0.10272l0.10059,-0.11736l0.10338,-0.1723l0.06921,-0.06921l0.08807,-0.13211l0.09213,-0.08375l0.06405,-0.10676l0.22594,-0.22594l0.07892,-0.11838l0.00106,-0.01914l0.24552,-0.21044l0.06158,-0.05599l0.09227,-0.15378l0.47019,-0.47019l0.07039,-0.04224l0.00043,-0.00774l0.48914,-0.41926l0.06269,-0.03135l0.02813,-0.02411l0.16125,-0.18813l0.00775,-0.00043l0.04224,-0.07039l0.09906,-0.09906l0.00275,-0.01376l0.03029,-0.01928l0.02463,-0.02463l0.24629,-0.14777l0.03133,-0.01994l0.06423,-0.07493l0.04928,-0.00274l0.02449,-0.04286l0.11104,-0.02776l0.02577,-0.01546l0.01355,0.00369l0.07344,-0.02448l0.00432,-0.00216l0.00697,-0.01219l0.00115,-0.00029l0.00029,-0.00116l1.09375,-0.625l1.09375,0.625l0.15625,0.625v0.11196c0.05067,0.13592 0.07836,0.28303 0.07836,0.4366z" fill="#a25f00" stroke-linecap="round" stroke-linejoin="round"/><path d="M234.29465,178.12506c0.11591,0 0.22814,0.01578 0.33466,0.04531l0.20335,-0.30504l0.01391,-0.05566l0.03746,-0.0214l0.38747,-0.58121l0.04526,-0.18104l0.04286,-0.02449l0.00274,-0.04928l0.48914,-0.41926l0.08378,-0.04189l0.00697,-0.01219l0.03483,-0.00871l0.03115,-0.01558l0.28037,-0.06231l0.27864,-0.06966h0.03483l0.03505,-0.00779l0.01168,0.00779h1.56412l0.625,0.15625l0.02449,0.04286l0.04928,0.00274l0.22685,0.26466l0.01284,0.00321l0.00696,0.01219l0.08379,0.0419l0.07748,0.06642l0.06227,0.00346l0.16125,0.18813l0.16357,0.14021l0.0716,0.0179l0.02449,0.04286l0.04928,0.00274l0.41926,0.48914l0.12025,0.24051l0.01219,0.00697l0.00871,0.03483l0.01557,0.03115l0.06231,0.28038l0.06966,0.27864v0.03483l0.00779,0.03504l-0.00779,0.01168v1.72085l-0.15625,0.625l-0.04286,0.02449l-0.00273,0.04928l-0.08112,0.06953l-0.00574,0.02581l-0.01558,0.03115l-0.00871,0.03483l-0.01219,0.00697l-0.12025,0.24051l-0.41926,0.48914l-0.04928,0.00274l-0.02449,0.04286l-0.3483,0.08707l-0.03115,0.01558l-0.28038,0.0623l-0.27864,0.06966h-0.03483l-0.03504,0.00779l-0.01168,-0.00779h-2.19105l-0.19494,-0.04873l-0.20035,-0.01541l-0.16127,-0.05375l-0.19415,-0.03883h-0.65669l-0.01168,0.00778l-0.03505,-0.00778h-0.03483l-0.27864,-0.06966l-0.28037,-0.06231l-0.03116,-0.01558l-0.03483,-0.0087l-0.00696,-0.01219l-0.08378,-0.0419l-0.07749,-0.06642l-0.06227,-0.00346l-0.16125,-0.18813l-0.18813,-0.16125l-0.00043,-0.00775l-0.0704,-0.04224l-0.22417,-0.22417l-0.06091,-0.00339l-0.16125,-0.18813l-0.18813,-0.16125l-0.00339,-0.06091l-0.13488,-0.13488l-0.06091,-0.00339l-0.16125,-0.18813l-0.18813,-0.16125l-0.00339,-0.06091l-0.22417,-0.22418l-0.12688,-0.21146l-0.08299,-0.04742l-0.03895,-0.15582l-0.08263,-0.13773l0.02184,-0.0801l-0.0029,-0.00581l-0.09317,-0.41926l-0.04658,-0.06987l0.01553,-0.06988l-0.01553,-0.06988l0.04658,-0.06988l0.09317,-0.41926l0.06626,-0.13251c0.0922,-0.19448 0.23311,-0.36137 0.40698,-0.4849l0.0244,-0.02846l0.01905,-0.00106c0.19565,-0.12702 0.42907,-0.20078 0.67971,-0.20078c0.46478,0 0.87032,0.25367 1.08571,0.6301c0.02965,-0.00211 0.05959,-0.00317 0.08978,-0.00317z" fill="url(#color-1)" stroke-linecap="butt" stroke-linejoin="miter"/><path d="M237.60567,175.7971c0.04043,-0.43651 0.49715,-0.43651 0.49715,-0.43651l0.36319,0.04309c1.18756,0.53093 2.0412,1.32258 2.34276,2.43701l0.17014,-0.05671l0.15643,0.46928c0.019,0.05284 0.02935,0.1098 0.02935,0.16919c0,0.27614 -0.22386,0.5 -0.5,0.5c-0.13807,0 -0.26307,-0.05596 -0.35355,-0.14645l-0.31867,-0.31867c-0.16331,-0.06792 -0.28286,-0.21994 -0.30458,-0.402c-0.45708,-0.68616 -0.80518,-1.35914 -1.74155,-1.43036c0,0 -0.49752,-0.04975 -0.44777,-0.54727c0.01249,-0.12485 0.05317,-0.21524 0.10711,-0.2806z" fill="#a3a3a3" stroke-linecap="butt" stroke-linejoin="miter"/></g></g></svg>